<svg width="3410" height="2249" xmlns="http://www.w3.org/2000/svg" xmlns:xlink="http://www.w3.org/1999/xlink" xml:space="preserve" overflow="hidden"><g transform="translate(-437 -138)"><rect x="1751.5" y="140.5" width="815" height="199" stroke="#000000" stroke-width="4.58333" stroke-miterlimit="8" fill="#D9D9D9"/><text font-family="SimSun,SimSun_MSFontService,sans-serif" font-weight="400" font-size="83" transform="matrix(1 0 0 1 1787.61 275)">输入</text><text font-family="SimSun,SimSun_MSFontService,sans-serif" font-weight="400" font-size="83" transform="matrix(1 0 0 1 1952.61 275)">：特定数据结构</text><rect x="766.5" y="557.5" width="868" height="199" stroke="#000000" stroke-width="4.58333" stroke-miterlimit="8" fill="#D9D9D9"/><text font-family="SimSun,SimSun_MSFontService,sans-serif" font-weight="400" font-size="83" transform="matrix(1 0 0 1 870.287 692)">长文本分析大模型</text><rect x="1903.5" y="557.5" width="512" height="199" stroke="#000000" stroke-width="4.58333" stroke-miterlimit="8" fill="#D9D9D9"/><text font-family="SimSun,SimSun_MSFontService,sans-serif" font-weight="400" font-size="83" transform="matrix(1 0 0 1 1952.61 692)">企业数据库</text><rect x="2922.5" y="557.5" width="400" height="199" stroke="#000000" stroke-width="4.58333" stroke-miterlimit="8" fill="#D9D9D9"/><text font-family="SimSun,SimSun_MSFontService,sans-serif" font-weight="400" font-size="83" transform="matrix(1 0 0 1 2956.9 692)">特征计算</text><path d="M2161.79 339.5 2161.79 535.176 2157.21 535.176 2157.21 339.5ZM2173.25 530.593 2159.5 558.093 2145.75 530.593Z"/><path d="M2161.36 339.5 2161.36 451.088 1200.5 451.088 1202.79 448.797 1202.79 535.177 1198.21 535.177 1198.21 446.505 2159.07 446.505 2156.78 448.797 2156.78 339.5ZM1214.25 530.593 1200.5 558.093 1186.75 530.593Z"/><path d="M0-2.29167 111.588-2.29167 111.588 963.046 109.296 960.754 195.676 960.754 195.676 965.338 107.005 965.338 107.005 0 109.296 2.29167 0 2.29167ZM191.093 949.296 218.593 963.046 191.093 976.796Z" transform="matrix(1.83697e-16 1 1 -1.83697e-16 2159.5 339.5)"/><rect x="1000.5" y="951.5" width="400" height="198" stroke="#000000" stroke-width="4.58333" stroke-miterlimit="8" fill="#D9D9D9"/><text font-family="SimSun,SimSun_MSFontService,sans-serif" font-weight="400" font-size="83" transform="matrix(1 0 0 1 1035.29 1085)">嵌入模型</text><rect x="585.5" y="1391.5" width="401" height="198" stroke="#000000" stroke-width="4.58333" stroke-miterlimit="8" fill="#D9D9D9"/><text font-family="SimSun,SimSun_MSFontService,sans-serif" font-weight="400" font-size="83" transform="matrix(1 0 0 1 661.712 1526)">大模型</text><path d="M2.29167-4.24608e-06 2.29199 171.862-2.29135 171.862-2.29167 4.24608e-06ZM13.7503 167.279 0.000360892 194.779-13.7497 167.279Z" transform="matrix(-1 0 0 1 1200.5 756.5)"/><rect x="1959.5" y="1041.5" width="400" height="198" stroke="#000000" stroke-width="4.58333" stroke-miterlimit="8" fill="#D9D9D9"/><text font-family="SimSun,SimSun_MSFontService,sans-serif" font-weight="400" font-size="83" transform="matrix(1 0 0 1 2035.11 1176)">大模型</text><rect x="670.5" y="1819.5" width="2978" height="198" stroke="#000000" stroke-width="4.58333" stroke-miterlimit="8" fill="#D9D9D9"/><text font-family="SimSun,SimSun_MSFontService,sans-serif" font-weight="400" font-size="83" transform="matrix(1 0 0 1 1223 1949)">置信度</text><text font-family="SimSun,SimSun_MSFontService,sans-serif" font-weight="400" font-size="83" transform="matrix(1 0 0 1 1470.5 1949)">映射函数</text><text font-family="Times New Roman,Times New Roman_MSFontService,sans-serif" font-weight="400" font-size="83" transform="matrix(1 0 0 1 1821.12 1949)">Confidence = </text><text font-family="Times New Roman,Times New Roman_MSFontService,sans-serif" font-style="italic" font-weight="400" font-size="83" transform="matrix(1 0 0 1 2289.2 1949)">σ</text><text font-family="Times New Roman,Times New Roman_MSFontService,sans-serif" font-weight="400" font-size="83" transform="matrix(1 0 0 1 2329.87 1949)">(</text><text font-family="Times New Roman,Times New Roman_MSFontService,sans-serif" font-style="italic" font-weight="400" font-size="83" transform="matrix(1 0 0 1 2357.37 1949)">w</text><text font-family="Times New Roman,Times New Roman_MSFontService,sans-serif" font-weight="400" font-size="46" transform="matrix(1 0 0 1 2412.37 1949)">1</text><text font-family="Times New Roman,Times New Roman_MSFontService,sans-serif" font-weight="400" font-size="83" transform="matrix(1 0 0 1 2435.29 1949)">​</text><text font-family="Times New Roman,Times New Roman_MSFontService,sans-serif" font-style="italic" font-weight="400" font-size="83" transform="matrix(1 0 0 1 2435.29 1949)">x</text><text font-family="Times New Roman,Times New Roman_MSFontService,sans-serif" font-weight="400" font-size="46" transform="matrix(1 0 0 1 2471.96 1949)">1</text><text font-family="Times New Roman,Times New Roman_MSFontService,sans-serif" font-weight="400" font-size="83" transform="matrix(1 0 0 1 2494.87 1949)">​+</text><text font-family="Times New Roman,Times New Roman_MSFontService,sans-serif" font-style="italic" font-weight="400" font-size="83" transform="matrix(1 0 0 1 2541.28 1949)">w</text><text font-family="Times New Roman,Times New Roman_MSFontService,sans-serif" font-weight="400" font-size="46" transform="matrix(1 0 0 1 2596.28 1949)">2</text><text font-family="Times New Roman,Times New Roman_MSFontService,sans-serif" font-weight="400" font-size="83" transform="matrix(1 0 0 1 2619.2 1949)">​</text><text font-family="Times New Roman,Times New Roman_MSFontService,sans-serif" font-style="italic" font-weight="400" font-size="83" transform="matrix(1 0 0 1 2619.2 1949)">x</text><text font-family="Times New Roman,Times New Roman_MSFontService,sans-serif" font-weight="400" font-size="46" transform="matrix(1 0 0 1 2655.86 1949)">2</text><text font-family="Times New Roman,Times New Roman_MSFontService,sans-serif" font-weight="400" font-size="83" transform="matrix(1 0 0 1 2678.78 1949)">​+</text><text font-family="Cambria Math,Cambria Math_MSFontService,sans-serif" font-weight="400" font-size="83" transform="matrix(1 0 0 1 2725.19 1949)">⋯</text><text font-family="Times New Roman,Times New Roman_MSFontService,sans-serif" font-weight="400" font-size="83" transform="matrix(1 0 0 1 2795.66 1949)">+</text><text font-family="Times New Roman,Times New Roman_MSFontService,sans-serif" font-style="italic" font-weight="400" font-size="83" transform="matrix(1 0 0 1 2842.06 1949)">w</text><text font-family="Times New Roman,Times New Roman_MSFontService,sans-serif" font-style="italic" font-weight="400" font-size="46" transform="matrix(1 0 0 1 2897.06 1949)">n</text><text font-family="Times New Roman,Times New Roman_MSFontService,sans-serif" font-weight="400" font-size="83" transform="matrix(1 0 0 1 2919.98 1949)">​</text><text font-family="Times New Roman,Times New Roman_MSFontService,sans-serif" font-style="italic" font-weight="400" font-size="83" transform="matrix(1 0 0 1 2919.98 1949)">x</text><text font-family="Times New Roman,Times New Roman_MSFontService,sans-serif" font-style="italic" font-weight="400" font-size="46" transform="matrix(1 0 0 1 2956.64 1949)">n</text><text font-family="Times New Roman,Times New Roman_MSFontService,sans-serif" font-weight="400" font-size="83" transform="matrix(1 0 0 1 2979.56 1949)">​+</text><text font-family="Times New Roman,Times New Roman_MSFontService,sans-serif" font-style="italic" font-weight="400" font-size="83" transform="matrix(1 0 0 1 3025.97 1949)">b</text><text font-family="Times New Roman,Times New Roman_MSFontService,sans-serif" font-style="italic" font-weight="400" font-size="83" transform="matrix(1 0 0 1 3067.22 1949)">)</text><rect x="1678.5" y="2185.5" width="962" height="199" stroke="#000000" stroke-width="4.58333" stroke-miterlimit="8" fill="#D9D9D9"/><text font-family="SimSun,SimSun_MSFontService,sans-serif" font-weight="400" font-size="83" transform="matrix(1 0 0 1 1725.73 2320)">输出：是</text><text font-family="SimSun,SimSun_MSFontService,sans-serif" font-weight="400" font-size="83" transform="matrix(1 0 0 1 2055.73 2320)">/</text><text font-family="SimSun,SimSun_MSFontService,sans-serif" font-weight="400" font-size="83" transform="matrix(1 0 0 1 2096.98 2320)">不是围标串标</text><path d="M2.29167-2.90178e-06 2.292 262.096-2.29133 262.096-2.29167 2.90178e-06ZM13.7503 257.513 0.000360892 285.013-13.7497 257.513Z" transform="matrix(-1 0 0 1 2159.5 756.5)"/><path d="M2161.79 2017.5 2161.79 2162.86 2157.21 2162.86 2157.21 2017.5ZM2173.25 2158.27 2159.5 2185.77 2145.75 2158.27Z"/><path d="M2.29167-2.85598e-06 2.29236 556.25-2.29097 556.25-2.29167 2.85598e-06ZM13.7507 551.667 0.000721785 579.167-13.7493 551.667Z" transform="matrix(-1 0 0 1 2159.5 1239.5)"/><path d="M1202.62 1149.5 1202.62 1331.42 785.5 1331.42 787.792 1329.13 787.792 1368.17 783.208 1368.17 783.208 1326.84 1200.32 1326.84 1198.03 1329.13 1198.03 1149.5ZM799.25 1363.59 785.5 1391.09 771.75 1363.59Z"/><text font-family="SimSun,SimSun_MSFontService,sans-serif" font-weight="400" font-size="73" transform="matrix(1 0 0 1 902.468 531)">标书文件</text><text font-family="SimSun,SimSun_MSFontService,sans-serif" font-weight="400" font-size="73" transform="matrix(1 0 0 1 2183.51 527)">投标公司识别码</text><text font-family="SimSun,SimSun_MSFontService,sans-serif" font-weight="400" font-size="73" transform="matrix(1 0 0 1 3142.08 527)">投标价格、投标时间</text><text font-family="SimSun,SimSun_MSFontService,sans-serif" font-weight="400" font-size="73" transform="matrix(1 0 0 1 855.64 888)">核心技术、人员设备配置</text><path d="M0 0 180.092 0 180.092 445.31 241.588 445.31" stroke="#000000" stroke-width="4.58333" stroke-miterlimit="8" fill="none" fill-rule="evenodd" transform="matrix(1.83697e-16 1 1 -1.83697e-16 1200.5 1149.5)"/><path d="M0-2.29167 119.471-2.29167 119.471 414.825 117.18 412.533 206.285 412.533 206.285 417.117 114.888 417.117 114.888 0 117.18 2.29167 0 2.29167ZM201.702 401.075 229.202 414.825 201.702 428.575Z" transform="matrix(1.83697e-16 1 1 -1.83697e-16 785.5 1589.5)"/><path d="M1648.1 1391.5 1648.1 1708.25 1200.5 1708.25 1202.79 1705.96 1202.79 1796.4 1198.21 1796.4 1198.21 1703.66 1645.81 1703.66 1643.52 1705.96 1643.52 1391.5ZM1214.25 1791.81 1200.5 1819.31 1186.75 1791.81Z"/><text font-family="SimSun,SimSun_MSFontService,sans-serif" font-weight="400" font-size="73" transform="matrix(1 0 0 1 1056.66 1263)">计算相似度</text><text font-family="SimSun,SimSun_MSFontService,sans-serif" font-weight="400" font-size="73" transform="matrix(1 0 0 1 741.488 1307)">高</text><text font-family="SimSun,SimSun_MSFontService,sans-serif" font-weight="400" font-size="73" transform="matrix(1 0 0 1 1592.44 1307)">低</text><text font-family="SimSun,SimSun_MSFontService,sans-serif" font-weight="400" font-size="73" transform="matrix(1 0 0 1 902.468 1789)">标书是否存在雷同</text><text font-family="SimSun,SimSun_MSFontService,sans-serif" font-weight="400" font-size="73" transform="matrix(1 0 0 1 481.4 1674)">复检确认</text><text font-family="SimSun,SimSun_MSFontService,sans-serif" font-weight="400" font-size="73" transform="matrix(1 0 0 1 1866.77 875)">公司主要人员、股东</text><text font-family="SimSun,SimSun_MSFontService,sans-serif" font-weight="400" font-size="73" transform="matrix(1 0 0 1 1866.77 963)">信息，公司注册信息</text><text font-family="SimSun,SimSun_MSFontService,sans-serif" font-weight="400" font-size="73" transform="matrix(1 0 0 1 1866.77 1446)">重要人员是否交叉任</text><text font-family="SimSun,SimSun_MSFontService,sans-serif" font-weight="400" font-size="73" transform="matrix(1 0 0 1 1866.77 1534)">职，注册地、联系电</text><text font-family="SimSun,SimSun_MSFontService,sans-serif" font-weight="400" font-size="73" transform="matrix(1 0 0 1 1866.77 1622)">话等是否存在重合</text><rect x="2922.5" y="1041.5" width="400" height="198" stroke="#000000" stroke-width="4.58333" stroke-miterlimit="8" fill="#D9D9D9"/><text font-family="SimSun,SimSun_MSFontService,sans-serif" font-weight="400" font-size="83" transform="matrix(1 0 0 1 2998.15 1176)">大模型</text><path d="M3124.79 756.5 3124.79 1018.6 3120.21 1018.6 3120.21 756.5ZM3136.25 1014.01 3122.5 1041.51 3108.75 1014.01Z"/><text font-family="SimSun,SimSun_MSFontService,sans-serif" font-weight="400" font-size="73" transform="matrix(1 0 0 1 2821.32 875)">价格变异系数、相对</text><text font-family="SimSun,SimSun_MSFontService,sans-serif" font-weight="400" font-size="73" transform="matrix(1 0 0 1 2821.32 963)">距离，时间集中度等</text><path d="M3124.79 1239.5 3124.79 1795.75 3120.21 1795.75 3120.21 1239.5ZM3136.25 1791.17 3122.5 1818.67 3108.75 1791.17Z"/><text font-family="SimSun,SimSun_MSFontService,sans-serif" font-weight="400" font-size="73" transform="matrix(1 0 0 1 2821.32 1446)">价格是否异常集中，</text><text font-family="SimSun,SimSun_MSFontService,sans-serif" font-weight="400" font-size="73" transform="matrix(1 0 0 1 2821.32 1534)">时间和价格是否存在</text><text font-family="SimSun,SimSun_MSFontService,sans-serif" font-weight="400" font-size="73" transform="matrix(1 0 0 1 2821.32 1622)">协同变化</text><text font-family="SimSun,SimSun_MSFontService,sans-serif" font-weight="400" font-size="73" transform="matrix(1 0 0 1 2183.51 2133)">阈值判定</text></g></svg>