<?xml version="1.0" encoding="utf-8" standalone="no"?>
<!DOCTYPE svg PUBLIC "-//W3C//DTD SVG 1.1//EN"
  "http://www.w3.org/Graphics/SVG/1.1/DTD/svg11.dtd">
<svg xmlns:xlink="http://www.w3.org/1999/xlink" width="720pt" height="576pt" viewBox="0 0 720 576" xmlns="http://www.w3.org/2000/svg" version="1.1">
 <metadata>
  <rdf:RDF xmlns:dc="http://purl.org/dc/elements/1.1/" xmlns:cc="http://creativecommons.org/ns#" xmlns:rdf="http://www.w3.org/1999/02/22-rdf-syntax-ns#">
   <cc:Work>
    <dc:type rdf:resource="http://purl.org/dc/dcmitype/StillImage"/>
    <dc:date>2026-01-13T18:04:21.048469</dc:date>
    <dc:format>image/svg+xml</dc:format>
    <dc:creator>
     <cc:Agent>
      <dc:title>Matplotlib v3.7.1, https://matplotlib.org/</dc:title>
     </cc:Agent>
    </dc:creator>
   </cc:Work>
  </rdf:RDF>
 </metadata>
 <defs>
  <style type="text/css">*{stroke-linejoin: round; stroke-linecap: butt}</style>
 </defs>
 <g id="figure_1">
  <g id="patch_1">
   <path d="M 0 576 
L 720 576 
L 720 0 
L 0 0 
z
" style="fill: #ffffff"/>
  </g>
  <g id="axes_1">
   <g id="patch_2">
    <path d="M 48.02375 534.36625 
L 701.685 534.36625 
L 701.685 28.3425 
L 48.02375 28.3425 
z
" style="fill: #ffffff"/>
   </g>
   <g id="matplotlib.axis_1">
    <g id="xtick_1">
     <g id="line2d_1">
      <path d="M 48.02375 534.36625 
L 48.02375 28.3425 
" clip-path="url(#p18420f0930)" style="fill: none; stroke: #b0b0b0; stroke-opacity: 0.3; stroke-width: 0.8; stroke-linecap: square"/>
     </g>
     <g id="line2d_2">
      <defs>
       <path id="md22c96c8db" d="M 0 0 
L 0 3.5 
" style="stroke: #000000; stroke-width: 0.8"/>
      </defs>
      <g>
       <use xlink:href="#md22c96c8db" x="48.02375" y="534.36625" style="stroke: #000000; stroke-width: 0.8"/>
      </g>
     </g>
     <g id="text_1">
      <!-- 0.0 -->
      <g transform="translate(40.52375 548.24125) scale(0.1 -0.1)">
       <defs>
        <path id="SimHei-30" d="M 225 2537 
Q 250 3200 412 3587 
Q 575 3975 875 4225 
Q 1175 4475 1612 4475 
Q 2050 4475 2375 4112 
Q 2700 3750 2800 3200 
Q 2900 2650 2862 1937 
Q 2825 1225 2612 775 
Q 2400 325 1975 150 
Q 1550 -25 1125 187 
Q 700 400 525 750 
Q 350 1100 275 1487 
Q 200 1875 225 2537 
z
M 750 2687 
Q 675 2000 800 1462 
Q 925 925 1212 700 
Q 1500 475 1800 612 
Q 2100 750 2237 1162 
Q 2375 1575 2375 2062 
Q 2375 2550 2337 2950 
Q 2300 3350 2112 3675 
Q 1925 4000 1612 4012 
Q 1300 4025 1062 3700 
Q 825 3375 750 2687 
z
" transform="scale(0.015625)"/>
        <path id="SimHei-2e" d="M 1075 125 
L 500 125 
L 500 675 
L 1075 675 
L 1075 125 
z
" transform="scale(0.015625)"/>
       </defs>
       <use xlink:href="#SimHei-30"/>
       <use xlink:href="#SimHei-2e" x="50"/>
       <use xlink:href="#SimHei-30" x="100"/>
      </g>
     </g>
    </g>
    <g id="xtick_2">
     <g id="line2d_3">
      <path d="M 178.756 534.36625 
L 178.756 28.3425 
" clip-path="url(#p18420f0930)" style="fill: none; stroke: #b0b0b0; stroke-opacity: 0.3; stroke-width: 0.8; stroke-linecap: square"/>
     </g>
     <g id="line2d_4">
      <g>
       <use xlink:href="#md22c96c8db" x="178.756" y="534.36625" style="stroke: #000000; stroke-width: 0.8"/>
      </g>
     </g>
     <g id="text_2">
      <!-- 0.2 -->
      <g transform="translate(171.256 548.24125) scale(0.1 -0.1)">
       <defs>
        <path id="SimHei-32" d="M 300 250 
Q 325 625 650 925 
Q 975 1225 1475 1862 
Q 1975 2500 2125 2850 
Q 2275 3200 2237 3450 
Q 2200 3700 2000 3862 
Q 1800 4025 1537 4000 
Q 1275 3975 1037 3800 
Q 800 3625 675 3275 
L 200 3350 
Q 400 3925 712 4187 
Q 1025 4450 1450 4475 
Q 1700 4500 1900 4462 
Q 2100 4425 2312 4287 
Q 2525 4150 2662 3875 
Q 2800 3600 2762 3212 
Q 2725 2825 2375 2287 
Q 2025 1750 1025 600 
L 2825 600 
L 2825 150 
L 300 150 
L 300 250 
z
" transform="scale(0.015625)"/>
       </defs>
       <use xlink:href="#SimHei-30"/>
       <use xlink:href="#SimHei-2e" x="50"/>
       <use xlink:href="#SimHei-32" x="100"/>
      </g>
     </g>
    </g>
    <g id="xtick_3">
     <g id="line2d_5">
      <path d="M 309.48825 534.36625 
L 309.48825 28.3425 
" clip-path="url(#p18420f0930)" style="fill: none; stroke: #b0b0b0; stroke-opacity: 0.3; stroke-width: 0.8; stroke-linecap: square"/>
     </g>
     <g id="line2d_6">
      <g>
       <use xlink:href="#md22c96c8db" x="309.48825" y="534.36625" style="stroke: #000000; stroke-width: 0.8"/>
      </g>
     </g>
     <g id="text_3">
      <!-- 0.4 -->
      <g transform="translate(301.98825 548.24125) scale(0.1 -0.1)">
       <defs>
        <path id="SimHei-34" d="M 2000 1100 
L 75 1100 
L 75 1525 
L 2100 4450 
L 2475 4450 
L 2475 1525 
L 3075 1525 
L 3075 1100 
L 2475 1100 
L 2475 150 
L 2000 150 
L 2000 1100 
z
M 2000 1525 
L 2000 3500 
L 600 1525 
L 2000 1525 
z
" transform="scale(0.015625)"/>
       </defs>
       <use xlink:href="#SimHei-30"/>
       <use xlink:href="#SimHei-2e" x="50"/>
       <use xlink:href="#SimHei-34" x="100"/>
      </g>
     </g>
    </g>
    <g id="xtick_4">
     <g id="line2d_7">
      <path d="M 440.2205 534.36625 
L 440.2205 28.3425 
" clip-path="url(#p18420f0930)" style="fill: none; stroke: #b0b0b0; stroke-opacity: 0.3; stroke-width: 0.8; stroke-linecap: square"/>
     </g>
     <g id="line2d_8">
      <g>
       <use xlink:href="#md22c96c8db" x="440.2205" y="534.36625" style="stroke: #000000; stroke-width: 0.8"/>
      </g>
     </g>
     <g id="text_4">
      <!-- 0.6 -->
      <g transform="translate(432.7205 548.24125) scale(0.1 -0.1)">
       <defs>
        <path id="SimHei-36" d="M 250 1612 
Q 275 1975 387 2225 
Q 500 2475 725 2850 
L 1750 4450 
L 2325 4450 
L 1275 2800 
Q 1950 2975 2350 2750 
Q 2750 2525 2887 2237 
Q 3025 1950 3037 1612 
Q 3050 1275 2937 950 
Q 2825 625 2537 362 
Q 2250 100 1737 75 
Q 1225 50 862 262 
Q 500 475 362 862 
Q 225 1250 250 1612 
z
M 1025 787 
Q 1250 550 1625 525 
Q 2000 500 2250 775 
Q 2500 1050 2500 1575 
Q 2500 2100 2187 2300 
Q 1875 2500 1487 2450 
Q 1100 2400 925 2075 
Q 750 1750 775 1387 
Q 800 1025 1025 787 
z
" transform="scale(0.015625)"/>
       </defs>
       <use xlink:href="#SimHei-30"/>
       <use xlink:href="#SimHei-2e" x="50"/>
       <use xlink:href="#SimHei-36" x="100"/>
      </g>
     </g>
    </g>
    <g id="xtick_5">
     <g id="line2d_9">
      <path d="M 570.95275 534.36625 
L 570.95275 28.3425 
" clip-path="url(#p18420f0930)" style="fill: none; stroke: #b0b0b0; stroke-opacity: 0.3; stroke-width: 0.8; stroke-linecap: square"/>
     </g>
     <g id="line2d_10">
      <g>
       <use xlink:href="#md22c96c8db" x="570.95275" y="534.36625" style="stroke: #000000; stroke-width: 0.8"/>
      </g>
     </g>
     <g id="text_5">
      <!-- 0.8 -->
      <g transform="translate(563.45275 548.24125) scale(0.1 -0.1)">
       <defs>
        <path id="SimHei-38" d="M 175 1375 
Q 175 1675 325 1962 
Q 475 2250 825 2425 
Q 525 2600 425 2812 
Q 325 3025 312 3300 
Q 300 3575 387 3775 
Q 475 3975 650 4150 
Q 825 4325 1037 4387 
Q 1250 4450 1500 4450 
Q 1750 4450 1950 4400 
Q 2150 4350 2375 4187 
Q 2600 4025 2700 3725 
Q 2800 3425 2687 3025 
Q 2575 2625 2100 2400 
Q 2525 2275 2700 2012 
Q 2875 1750 2875 1375 
Q 2875 1000 2762 775 
Q 2650 550 2512 400 
Q 2375 250 2137 162 
Q 1900 75 1537 75 
Q 1175 75 912 162 
Q 650 250 475 425 
Q 300 600 237 837 
Q 175 1075 175 1375 
z
M 687 1400 
Q 675 1100 787 875 
Q 900 650 1200 587 
Q 1500 525 1825 600 
Q 2150 675 2275 950 
Q 2400 1225 2362 1500 
Q 2325 1775 2050 1962 
Q 1775 2150 1450 2125 
Q 1125 2100 912 1900 
Q 700 1700 687 1400 
z
M 775 3350 
Q 775 3100 950 2875 
Q 1125 2650 1500 2650 
Q 1875 2650 2062 2875 
Q 2250 3100 2237 3412 
Q 2225 3725 2012 3875 
Q 1800 4025 1437 4000 
Q 1075 3975 925 3787 
Q 775 3600 775 3350 
z
" transform="scale(0.015625)"/>
       </defs>
       <use xlink:href="#SimHei-30"/>
       <use xlink:href="#SimHei-2e" x="50"/>
       <use xlink:href="#SimHei-38" x="100"/>
      </g>
     </g>
    </g>
    <g id="xtick_6">
     <g id="line2d_11">
      <path d="M 701.685 534.36625 
L 701.685 28.3425 
" clip-path="url(#p18420f0930)" style="fill: none; stroke: #b0b0b0; stroke-opacity: 0.3; stroke-width: 0.8; stroke-linecap: square"/>
     </g>
     <g id="line2d_12">
      <g>
       <use xlink:href="#md22c96c8db" x="701.685" y="534.36625" style="stroke: #000000; stroke-width: 0.8"/>
      </g>
     </g>
     <g id="text_6">
      <!-- 1.0 -->
      <g transform="translate(694.185 548.24125) scale(0.1 -0.1)">
       <defs>
        <path id="SimHei-31" d="M 1400 3600 
Q 1075 3275 575 2975 
L 575 3450 
Q 1200 3875 1600 4450 
L 1900 4450 
L 1900 150 
L 1400 150 
L 1400 3600 
z
" transform="scale(0.015625)"/>
       </defs>
       <use xlink:href="#SimHei-31"/>
       <use xlink:href="#SimHei-2e" x="50"/>
       <use xlink:href="#SimHei-30" x="100"/>
      </g>
     </g>
    </g>
    <g id="text_7">
     <!-- 假阳性率 -->
     <g transform="translate(350.854375 562.913125) scale(0.12 -0.12)">
      <defs>
       <path id="SimHei-5047" d="M 3800 4800 
Q 3775 4525 3775 3975 
Q 3775 3425 3800 3075 
L 2500 3075 
L 2500 2400 
L 3025 2400 
Q 3250 2400 3625 2425 
L 3625 1975 
Q 3250 2000 3025 2000 
L 2500 2000 
L 2500 1250 
L 2975 1250 
Q 3350 1250 3650 1275 
L 3650 825 
Q 3375 850 2975 850 
L 2500 850 
L 2500 -575 
L 2075 -575 
Q 2100 -175 2100 250 
L 2100 4050 
Q 2100 4575 2075 4800 
L 3800 4800 
z
M 5800 2525 
Q 5675 1375 5150 450 
Q 5600 -25 6150 -275 
Q 5950 -450 5800 -675 
Q 5400 -425 4875 125 
Q 4350 -375 3700 -675 
Q 3575 -450 3375 -275 
Q 4125 -50 4625 475 
Q 4250 1100 4050 2125 
L 3925 2100 
L 3925 2550 
Q 4225 2525 4800 2525 
L 5800 2525 
z
M 1075 2925 
Q 900 2550 650 2100 
Q 500 2250 250 2450 
Q 550 2700 912 3575 
Q 1275 4450 1400 5100 
Q 1650 4950 1975 4875 
Q 1875 4800 1762 4512 
Q 1650 4225 1500 3750 
L 1500 475 
Q 1500 -175 1525 -575 
L 1050 -575 
Q 1075 -125 1075 500 
L 1075 2925 
z
M 5775 4850 
Q 5750 4575 5737 3975 
Q 5725 3375 5775 3075 
L 5050 3075 
Q 4525 3075 4100 3050 
L 4100 3475 
Q 4500 3450 5025 3450 
L 5300 3450 
L 5300 4475 
L 5050 4475 
Q 4475 4475 4150 4450 
L 4150 4875 
Q 4500 4850 4950 4850 
L 5775 4850 
z
M 3350 3475 
L 3350 4400 
L 2500 4400 
L 2500 3475 
L 3350 3475 
z
M 4450 2125 
Q 4650 1200 4900 850 
Q 5225 1400 5300 2125 
L 4450 2125 
z
" transform="scale(0.015625)"/>
       <path id="SimHei-9633" d="M 5850 4775 
Q 5825 4325 5825 3925 
L 5825 550 
Q 5825 150 5850 -400 
L 5350 -400 
L 5350 300 
L 3550 300 
L 3550 -450 
L 3050 -450 
Q 3075 100 3075 475 
L 3075 3925 
Q 3075 4325 3050 4775 
L 5850 4775 
z
M 2675 4925 
Q 2525 4450 2387 4037 
Q 2250 3625 2050 2850 
Q 2375 2425 2525 2062 
Q 2675 1700 2650 1300 
Q 2625 900 2337 737 
Q 2050 575 1550 525 
Q 1500 900 1350 1025 
Q 1850 1025 2025 1162 
Q 2200 1300 2175 1575 
Q 2150 1850 1975 2162 
Q 1800 2475 1525 2775 
Q 1925 4075 2050 4550 
L 1100 4550 
L 1100 -600 
L 625 -600 
Q 650 -50 650 500 
L 650 3775 
Q 650 4475 625 4925 
L 2675 4925 
z
M 5350 2700 
L 5350 4375 
L 3550 4375 
L 3550 2700 
L 5350 2700 
z
M 5350 675 
L 5350 2300 
L 3550 2300 
L 3550 675 
L 5350 675 
z
" transform="scale(0.015625)"/>
       <path id="SimHei-6027" d="M 3450 4525 
Q 3325 4075 3275 3750 
L 4050 3750 
L 4050 4275 
Q 4050 4700 4025 5100 
L 4550 5100 
Q 4525 4700 4525 4275 
L 4525 3750 
L 5025 3750 
Q 5350 3750 5800 3775 
L 5800 3300 
Q 5350 3325 5025 3325 
L 4525 3325 
L 4525 2000 
L 4975 2000 
Q 5350 2000 5725 2025 
L 5725 1550 
Q 5350 1575 4975 1575 
L 4525 1575 
L 4525 25 
L 5200 25 
Q 5625 25 6025 50 
L 6025 -400 
Q 5625 -375 5200 -375 
L 3275 -375 
Q 2825 -375 2400 -400 
L 2400 50 
Q 2825 25 3250 25 
L 4050 25 
L 4050 1575 
L 3625 1575 
Q 3300 1575 2875 1550 
L 2875 2025 
Q 3200 2000 3625 2000 
L 4050 2000 
L 4050 3325 
L 3175 3325 
Q 3100 2950 2775 2225 
Q 2500 2375 2325 2400 
Q 2675 3125 2775 3650 
Q 2875 4175 2950 4650 
Q 3200 4575 3450 4525 
z
M 1700 5150 
Q 1675 4650 1675 4175 
L 1675 425 
Q 1675 -100 1700 -625 
L 1175 -625 
Q 1200 -100 1200 425 
L 1200 4175 
Q 1200 4700 1175 5150 
L 1700 5150 
z
M 975 3725 
Q 825 2675 700 2150 
Q 450 2200 250 2250 
Q 425 2900 525 3800 
Q 725 3775 975 3725 
z
M 2125 4025 
Q 2325 3625 2525 3000 
Q 2300 2925 2125 2825 
Q 1950 3375 1750 3850 
Q 1950 3950 2125 4025 
z
" transform="scale(0.015625)"/>
       <path id="SimHei-7387" d="M 3325 5150 
Q 3425 4900 3550 4525 
L 4800 4525 
Q 5250 4525 5800 4550 
L 5800 4125 
Q 5250 4175 4775 4175 
L 2800 4175 
Q 2975 4050 3300 3900 
Q 3075 3750 2875 3537 
Q 2675 3325 2475 3125 
L 3275 3125 
Q 3575 3425 3775 3775 
Q 4000 3600 4275 3425 
Q 3950 3250 3600 2875 
Q 3250 2500 2625 2000 
L 3850 2100 
Q 3725 2250 3600 2425 
Q 3750 2475 4000 2650 
Q 4250 2350 4700 1700 
Q 4475 1625 4225 1450 
Q 4175 1600 4025 1775 
Q 3700 1750 3425 1750 
L 3425 1050 
L 5150 1050 
Q 5675 1050 6100 1075 
L 6100 650 
Q 5700 675 5125 675 
L 3425 675 
L 3425 175 
Q 3425 -300 3450 -625 
L 2900 -625 
Q 2925 -300 2925 175 
L 2925 675 
L 1325 675 
Q 825 675 325 650 
L 325 1075 
Q 825 1050 1350 1050 
L 2925 1050 
L 2925 1700 
Q 2700 1675 2475 1637 
Q 2250 1600 2025 1525 
Q 1950 1775 1850 2000 
Q 2075 2025 2325 2200 
Q 2575 2375 2975 2800 
Q 2300 2725 2025 2625 
Q 1975 2875 1850 3175 
Q 2075 3175 2325 3487 
Q 2575 3800 2750 4175 
L 1700 4175 
Q 1150 4175 650 4125 
L 650 4550 
Q 1150 4525 1550 4525 
L 2975 4525 
Q 2900 4825 2800 5025 
Q 3025 5075 3325 5150 
z
M 1625 2575 
Q 1725 2400 1825 2200 
Q 1575 2050 1325 1862 
Q 1075 1675 800 1425 
Q 625 1675 475 1875 
Q 800 2025 1100 2212 
Q 1400 2400 1625 2575 
z
M 4850 2650 
Q 5125 2475 5337 2337 
Q 5550 2200 5875 1950 
Q 5675 1800 5500 1600 
Q 5300 1775 5062 1975 
Q 4825 2175 4575 2325 
Q 4725 2475 4850 2650 
z
M 5725 3525 
Q 5550 3450 5300 3262 
Q 5050 3075 4800 2825 
Q 4625 3050 4475 3175 
Q 4700 3325 4875 3487 
Q 5050 3650 5300 3925 
Q 5525 3700 5725 3525 
z
M 1050 3850 
Q 1425 3600 1775 3275 
Q 1575 3100 1425 2925 
Q 1075 3300 675 3525 
Q 875 3700 1050 3850 
z
" transform="scale(0.015625)"/>
      </defs>
      <use xlink:href="#SimHei-5047"/>
      <use xlink:href="#SimHei-9633" x="100"/>
      <use xlink:href="#SimHei-6027" x="200"/>
      <use xlink:href="#SimHei-7387" x="300"/>
     </g>
    </g>
   </g>
   <g id="matplotlib.axis_2">
    <g id="ytick_1">
     <g id="line2d_13">
      <path d="M 48.02375 534.36625 
L 701.685 534.36625 
" clip-path="url(#p18420f0930)" style="fill: none; stroke: #b0b0b0; stroke-opacity: 0.3; stroke-width: 0.8; stroke-linecap: square"/>
     </g>
     <g id="line2d_14">
      <defs>
       <path id="m1738c4e7e0" d="M 0 0 
L -3.5 0 
" style="stroke: #000000; stroke-width: 0.8"/>
      </defs>
      <g>
       <use xlink:href="#m1738c4e7e0" x="48.02375" y="534.36625" style="stroke: #000000; stroke-width: 0.8"/>
      </g>
     </g>
     <g id="text_8">
      <!-- 0.0 -->
      <g transform="translate(26.02375 537.80375) scale(0.1 -0.1)">
       <use xlink:href="#SimHei-30"/>
       <use xlink:href="#SimHei-2e" x="50"/>
       <use xlink:href="#SimHei-30" x="100"/>
      </g>
     </g>
    </g>
    <g id="ytick_2">
     <g id="line2d_15">
      <path d="M 48.02375 434.163527 
L 701.685 434.163527 
" clip-path="url(#p18420f0930)" style="fill: none; stroke: #b0b0b0; stroke-opacity: 0.3; stroke-width: 0.8; stroke-linecap: square"/>
     </g>
     <g id="line2d_16">
      <g>
       <use xlink:href="#m1738c4e7e0" x="48.02375" y="434.163527" style="stroke: #000000; stroke-width: 0.8"/>
      </g>
     </g>
     <g id="text_9">
      <!-- 0.2 -->
      <g transform="translate(26.02375 437.601027) scale(0.1 -0.1)">
       <use xlink:href="#SimHei-30"/>
       <use xlink:href="#SimHei-2e" x="50"/>
       <use xlink:href="#SimHei-32" x="100"/>
      </g>
     </g>
    </g>
    <g id="ytick_3">
     <g id="line2d_17">
      <path d="M 48.02375 333.960804 
L 701.685 333.960804 
" clip-path="url(#p18420f0930)" style="fill: none; stroke: #b0b0b0; stroke-opacity: 0.3; stroke-width: 0.8; stroke-linecap: square"/>
     </g>
     <g id="line2d_18">
      <g>
       <use xlink:href="#m1738c4e7e0" x="48.02375" y="333.960804" style="stroke: #000000; stroke-width: 0.8"/>
      </g>
     </g>
     <g id="text_10">
      <!-- 0.4 -->
      <g transform="translate(26.02375 337.398304) scale(0.1 -0.1)">
       <use xlink:href="#SimHei-30"/>
       <use xlink:href="#SimHei-2e" x="50"/>
       <use xlink:href="#SimHei-34" x="100"/>
      </g>
     </g>
    </g>
    <g id="ytick_4">
     <g id="line2d_19">
      <path d="M 48.02375 233.758082 
L 701.685 233.758082 
" clip-path="url(#p18420f0930)" style="fill: none; stroke: #b0b0b0; stroke-opacity: 0.3; stroke-width: 0.8; stroke-linecap: square"/>
     </g>
     <g id="line2d_20">
      <g>
       <use xlink:href="#m1738c4e7e0" x="48.02375" y="233.758082" style="stroke: #000000; stroke-width: 0.8"/>
      </g>
     </g>
     <g id="text_11">
      <!-- 0.6 -->
      <g transform="translate(26.02375 237.195582) scale(0.1 -0.1)">
       <use xlink:href="#SimHei-30"/>
       <use xlink:href="#SimHei-2e" x="50"/>
       <use xlink:href="#SimHei-36" x="100"/>
      </g>
     </g>
    </g>
    <g id="ytick_5">
     <g id="line2d_21">
      <path d="M 48.02375 133.555359 
L 701.685 133.555359 
" clip-path="url(#p18420f0930)" style="fill: none; stroke: #b0b0b0; stroke-opacity: 0.3; stroke-width: 0.8; stroke-linecap: square"/>
     </g>
     <g id="line2d_22">
      <g>
       <use xlink:href="#m1738c4e7e0" x="48.02375" y="133.555359" style="stroke: #000000; stroke-width: 0.8"/>
      </g>
     </g>
     <g id="text_12">
      <!-- 0.8 -->
      <g transform="translate(26.02375 136.992859) scale(0.1 -0.1)">
       <use xlink:href="#SimHei-30"/>
       <use xlink:href="#SimHei-2e" x="50"/>
       <use xlink:href="#SimHei-38" x="100"/>
      </g>
     </g>
    </g>
    <g id="ytick_6">
     <g id="line2d_23">
      <path d="M 48.02375 33.352636 
L 701.685 33.352636 
" clip-path="url(#p18420f0930)" style="fill: none; stroke: #b0b0b0; stroke-opacity: 0.3; stroke-width: 0.8; stroke-linecap: square"/>
     </g>
     <g id="line2d_24">
      <g>
       <use xlink:href="#m1738c4e7e0" x="48.02375" y="33.352636" style="stroke: #000000; stroke-width: 0.8"/>
      </g>
     </g>
     <g id="text_13">
      <!-- 1.0 -->
      <g transform="translate(26.02375 36.790136) scale(0.1 -0.1)">
       <use xlink:href="#SimHei-31"/>
       <use xlink:href="#SimHei-2e" x="50"/>
       <use xlink:href="#SimHei-30" x="100"/>
      </g>
     </g>
    </g>
    <g id="text_14">
     <!-- 真阳性率 -->
     <g transform="translate(20.52375 305.354375) rotate(-90) scale(0.12 -0.12)">
      <defs>
       <path id="SimHei-771f" d="M 3550 5100 
Q 3450 4925 3400 4625 
L 4850 4625 
Q 5175 4625 5725 4650 
L 5725 4250 
Q 5200 4275 4850 4275 
L 3350 4275 
L 3300 3850 
L 5050 3850 
Q 5025 3550 5025 3150 
L 5025 1075 
L 5400 1075 
Q 5800 1075 6075 1100 
L 6075 625 
Q 5575 650 4900 650 
L 1450 650 
Q 775 650 350 625 
L 350 1100 
Q 725 1075 1100 1075 
L 1425 1075 
L 1425 3075 
Q 1425 3450 1400 3850 
L 2825 3850 
L 2850 4275 
L 1400 4275 
Q 1050 4275 625 4250 
L 625 4650 
Q 1175 4625 1375 4625 
L 2925 4625 
Q 2950 4875 2950 5125 
Q 3300 5100 3550 5100 
z
M 4075 525 
Q 4500 425 4925 250 
Q 5350 75 5825 -150 
Q 5550 -425 5450 -575 
Q 5025 -300 4550 -100 
Q 4075 100 3800 175 
Q 3925 350 4075 525 
z
M 4525 3150 
L 4525 3475 
L 1925 3475 
L 1925 3150 
L 4525 3150 
z
M 4525 1075 
L 4525 1400 
L 1925 1400 
L 1925 1075 
L 4525 1075 
z
M 2775 200 
Q 2375 -25 1875 -225 
Q 1375 -425 950 -575 
Q 775 -400 600 -250 
Q 1225 -50 1625 137 
Q 2025 325 2350 525 
Q 2550 350 2775 200 
z
M 4525 1775 
L 4525 2075 
L 1925 2075 
L 1925 1775 
L 4525 1775 
z
M 4525 2475 
L 4525 2775 
L 1925 2775 
L 1925 2475 
L 4525 2475 
z
" transform="scale(0.015625)"/>
      </defs>
      <use xlink:href="#SimHei-771f"/>
      <use xlink:href="#SimHei-9633" x="100"/>
      <use xlink:href="#SimHei-6027" x="200"/>
      <use xlink:href="#SimHei-7387" x="300"/>
     </g>
    </g>
   </g>
   <g id="line2d_25">
    <path d="M 48.02375 534.36625 
L 55.368258 434.163527 
L 70.057275 434.163527 
L 238.980969 83.453998 
L 253.669986 83.453998 
L 268.359003 83.453998 
L 503.383272 33.352636 
L 510.727781 33.352636 
L 606.20639 33.352636 
L 613.550899 33.352636 
L 686.995983 33.352636 
L 701.685 33.352636 
" clip-path="url(#p18420f0930)" style="fill: none; stroke: #ffa500; stroke-width: 2; stroke-linecap: square"/>
   </g>
   <g id="line2d_26">
    <path d="M 48.02375 534.36625 
L 62.712767 534.36625 
L 84.746292 534.36625 
L 180.224902 384.062166 
L 238.980969 333.960804 
L 554.794831 83.453998 
L 569.483848 83.453998 
L 672.306966 33.352636 
L 679.651475 33.352636 
L 694.340492 33.352636 
L 701.685 33.352636 
" clip-path="url(#p18420f0930)" style="fill: none; stroke: #ff0000; stroke-width: 2; stroke-linecap: square"/>
   </g>
   <g id="line2d_27">
    <path d="M 48.02375 534.36625 
L 55.368258 534.36625 
L 62.712767 534.36625 
L 202.258427 484.264889 
L 224.291952 434.163527 
L 378.526629 83.453998 
L 400.560154 33.352636 
L 598.861882 33.352636 
L 620.895407 33.352636 
L 672.306966 33.352636 
L 686.995983 33.352636 
L 701.685 33.352636 
" clip-path="url(#p18420f0930)" style="fill: none; stroke: #0000ff; stroke-width: 2; stroke-linecap: square"/>
   </g>
   <g id="line2d_28">
    <path d="M 48.02375 534.36625 
L 701.685 33.352636 
" clip-path="url(#p18420f0930)" style="fill: none; stroke-dasharray: 7.4,3.2; stroke-dashoffset: 0; stroke: #000080; stroke-width: 2"/>
   </g>
   <g id="patch_3">
    <path d="M 48.02375 534.36625 
L 48.02375 28.3425 
" style="fill: none; stroke: #000000; stroke-width: 0.8; stroke-linejoin: miter; stroke-linecap: square"/>
   </g>
   <g id="patch_4">
    <path d="M 701.685 534.36625 
L 701.685 28.3425 
" style="fill: none; stroke: #000000; stroke-width: 0.8; stroke-linejoin: miter; stroke-linecap: square"/>
   </g>
   <g id="patch_5">
    <path d="M 48.02375 534.36625 
L 701.685 534.36625 
" style="fill: none; stroke: #000000; stroke-width: 0.8; stroke-linejoin: miter; stroke-linecap: square"/>
   </g>
   <g id="patch_6">
    <path d="M 48.02375 28.3425 
L 701.685 28.3425 
" style="fill: none; stroke: #000000; stroke-width: 0.8; stroke-linejoin: miter; stroke-linecap: square"/>
   </g>
   <g id="text_15">
    <!-- 三中方法的ROC曲线对比 -->
    <g transform="translate(301.354375 22.3425) scale(0.14 -0.14)">
     <defs>
      <path id="SimHei-4e09" d="M 6000 -200 
Q 5550 -175 5200 -175 
L 1300 -175 
Q 900 -175 375 -200 
L 375 350 
Q 850 325 1300 325 
L 5200 325 
Q 5575 325 6000 375 
L 6000 -200 
z
M 900 4600 
Q 1400 4575 1825 4575 
L 4600 4575 
Q 5075 4575 5475 4600 
L 5475 4075 
Q 5100 4100 4600 4100 
L 1800 4100 
Q 1375 4100 900 4075 
L 900 4600 
z
M 2075 2100 
Q 1700 2100 1275 2075 
L 1275 2625 
Q 1675 2600 2075 2600 
L 4225 2600 
Q 4600 2600 5050 2625 
L 5050 2075 
Q 4550 2100 4225 2100 
L 2075 2100 
z
" transform="scale(0.015625)"/>
      <path id="SimHei-4e2d" d="M 3475 5200 
Q 3450 4500 3450 3875 
L 5625 3875 
Q 5600 3375 5600 2500 
Q 5600 1650 5625 1225 
L 5075 1225 
L 5075 1600 
L 3450 1600 
L 3450 525 
Q 3450 225 3475 -600 
L 2875 -600 
Q 2925 -150 2925 450 
L 2925 1600 
L 1300 1600 
L 1300 1225 
L 750 1225 
Q 775 1600 775 2500 
Q 775 3425 750 3875 
L 2925 3875 
Q 2925 4550 2900 5200 
L 3475 5200 
z
M 5075 2000 
L 5075 3475 
L 3450 3475 
L 3450 2000 
L 5075 2000 
z
M 2925 2000 
L 2925 3475 
L 1300 3475 
L 1300 2000 
L 2925 2000 
z
" transform="scale(0.015625)"/>
      <path id="SimHei-65b9" d="M 425 3975 
Q 825 3950 1300 3950 
L 5025 3950 
Q 5625 3950 6000 3975 
L 6000 3475 
Q 5675 3500 5100 3500 
L 2525 3500 
Q 2525 3225 2500 2500 
L 5300 2500 
Q 5250 2175 5200 1550 
L 5050 175 
Q 5000 -275 4625 -412 
Q 4250 -550 3525 -625 
Q 3500 -300 3325 -50 
Q 3900 -75 4200 0 
Q 4500 75 4575 425 
L 4725 2050 
L 2475 2050 
Q 2375 1350 2162 875 
Q 1950 400 1575 0 
Q 1200 -400 825 -700 
Q 725 -550 375 -350 
Q 700 -175 1062 200 
Q 1425 575 1662 1050 
Q 1900 1525 1962 2100 
Q 2025 2675 2025 3500 
L 1325 3500 
Q 775 3500 425 3475 
L 425 3975 
z
M 3075 4075 
Q 2850 4575 2575 5000 
Q 2800 5125 3025 5275 
Q 3300 4850 3575 4350 
Q 3325 4250 3075 4075 
z
" transform="scale(0.015625)"/>
      <path id="SimHei-6cd5" d="M 6075 -300 
Q 5850 -425 5625 -625 
Q 5450 -300 5325 -125 
Q 4525 -175 3587 -262 
Q 2650 -350 2325 -450 
Q 2250 -150 2125 75 
Q 2450 175 2825 725 
Q 3200 1275 3500 2100 
L 2800 2100 
Q 2350 2100 1950 2075 
L 1950 2525 
Q 2350 2500 2825 2500 
L 3725 2500 
L 3725 3600 
L 3150 3600 
Q 2675 3600 2325 3575 
L 2325 4025 
Q 2725 4000 3125 4000 
L 3725 4000 
Q 3725 4700 3700 5150 
L 4250 5150 
Q 4225 4775 4225 4000 
L 4975 4000 
Q 5350 4000 5750 4025 
L 5750 3575 
Q 5350 3600 5025 3600 
L 4225 3600 
L 4225 2500 
L 5125 2500 
Q 5575 2500 6025 2525 
L 6025 2075 
Q 5575 2100 5125 2100 
L 3850 2100 
L 4100 1950 
Q 3950 1775 3625 1200 
Q 3300 625 2900 100 
Q 4000 150 5075 225 
Q 4775 675 4450 1025 
Q 4650 1175 4825 1350 
Q 5275 800 6075 -300 
z
M 300 -250 
Q 650 100 1012 625 
Q 1375 1150 1725 1725 
Q 1850 1500 2075 1375 
Q 1850 1075 1500 487 
Q 1150 -100 850 -625 
Q 650 -425 300 -250 
z
M 675 3425 
Q 1200 3100 1800 2650 
Q 1575 2500 1400 2250 
Q 925 2675 350 3050 
Q 525 3200 675 3425 
z
M 1050 4900 
Q 1550 4575 2100 4125 
Q 1900 3975 1725 3725 
Q 1250 4175 725 4525 
Q 900 4700 1050 4900 
z
" transform="scale(0.015625)"/>
      <path id="SimHei-7684" d="M 2100 4975 
Q 1975 4750 1750 3950 
L 2875 3950 
Q 2850 3525 2850 2875 
L 2850 675 
Q 2850 300 2875 -400 
L 2375 -400 
L 2375 100 
L 1100 100 
L 1100 -450 
L 600 -450 
Q 625 350 625 550 
L 625 2850 
Q 625 3525 600 3950 
L 1325 3950 
Q 1450 4525 1525 5150 
Q 1875 5025 2100 4975 
z
M 5825 3075 
Q 5800 1550 5700 175 
Q 5650 -275 5225 -425 
Q 4800 -575 4275 -625 
Q 4250 -350 4050 -50 
Q 4550 -75 4837 -25 
Q 5125 25 5200 200 
Q 5275 375 5312 1225 
Q 5350 2075 5375 3600 
L 3925 3600 
Q 3725 3125 3350 2475 
Q 3175 2650 2925 2750 
Q 3150 3050 3350 3475 
Q 3550 3900 3700 4400 
Q 3850 4900 3875 5175 
Q 4225 5025 4475 4950 
Q 4350 4750 4262 4512 
Q 4175 4275 4075 4050 
L 5850 4050 
Q 5825 3525 5825 3075 
z
M 2375 525 
L 2375 1850 
L 1100 1850 
L 1100 525 
L 2375 525 
z
M 2375 2275 
L 2375 3525 
L 1100 3525 
L 1100 2275 
L 2375 2275 
z
M 4350 2050 
Q 4500 1750 4700 1275 
Q 4525 1200 4225 1025 
Q 4050 1500 3900 1837 
Q 3750 2175 3600 2400 
Q 3775 2500 4050 2650 
L 4350 2050 
z
" transform="scale(0.015625)"/>
      <path id="SimHei-52" d="M 3000 125 
L 2400 125 
L 1500 1975 
L 850 1975 
L 850 125 
L 275 125 
L 275 4400 
L 1525 4400 
Q 2125 4400 2500 4112 
Q 2875 3825 2875 3175 
Q 2875 2675 2625 2400 
Q 2375 2125 2050 2050 
L 3000 125 
z
M 2300 3175 
Q 2300 3525 2087 3725 
Q 1875 3925 1400 3925 
L 850 3925 
L 850 2450 
L 1550 2450 
Q 1850 2450 2075 2612 
Q 2300 2775 2300 3175 
z
" transform="scale(0.015625)"/>
      <path id="SimHei-4f" d="M 2950 2275 
Q 2950 1100 2587 587 
Q 2225 75 1575 75 
Q 925 75 550 587 
Q 175 1100 175 2275 
Q 175 3450 550 3950 
Q 925 4450 1575 4450 
Q 2225 4450 2587 3950 
Q 2950 3450 2950 2275 
z
M 2350 2275 
Q 2350 3325 2125 3650 
Q 1900 3975 1575 3975 
Q 1250 3975 1012 3650 
Q 775 3325 775 2275 
Q 775 1225 1012 887 
Q 1250 550 1575 550 
Q 1900 550 2125 887 
Q 2350 1225 2350 2275 
z
" transform="scale(0.015625)"/>
      <path id="SimHei-43" d="M 2975 1825 
Q 2950 875 2575 475 
Q 2200 75 1675 75 
Q 1075 75 650 562 
Q 225 1050 225 2125 
Q 225 3300 637 3875 
Q 1050 4450 1700 4450 
Q 2250 4450 2612 4037 
Q 2975 3625 2950 2875 
L 2400 2875 
Q 2400 3425 2225 3700 
Q 2050 3975 1700 3975 
Q 1300 3975 1062 3562 
Q 825 3150 825 2175 
Q 825 1275 1062 912 
Q 1300 550 1675 550 
Q 1950 550 2175 812 
Q 2400 1075 2400 1825 
L 2975 1825 
z
" transform="scale(0.015625)"/>
      <path id="SimHei-66f2" d="M 5825 500 
Q 5825 -200 5850 -550 
L 5275 -550 
L 5275 -50 
L 1150 -50 
L 1150 -550 
L 575 -550 
Q 600 125 600 550 
L 600 2775 
Q 600 3425 575 3900 
L 2150 3900 
L 2150 4450 
Q 2125 4850 2125 5150 
L 2700 5150 
Q 2650 4825 2650 4475 
L 2650 3900 
L 3700 3900 
L 3700 4525 
Q 3700 4850 3675 5175 
L 4250 5175 
Q 4225 4875 4225 4550 
L 4225 3900 
L 5850 3900 
Q 5825 3525 5825 2750 
L 5825 500 
z
M 3700 325 
L 3700 1875 
L 2650 1875 
L 2650 325 
L 3700 325 
z
M 5275 325 
L 5275 1875 
L 4225 1875 
L 4225 325 
L 5275 325 
z
M 2150 325 
L 2150 1875 
L 1150 1875 
L 1150 325 
L 2150 325 
z
M 3700 2250 
L 3700 3525 
L 2650 3525 
L 2650 2250 
L 3700 2250 
z
M 5275 2250 
L 5275 3525 
L 4225 3525 
L 4225 2250 
L 5275 2250 
z
M 2150 2250 
L 2150 3525 
L 1150 3525 
L 1150 2250 
L 2150 2250 
z
" transform="scale(0.015625)"/>
      <path id="SimHei-7ebf" d="M 3450 4300 
Q 3450 4675 3375 5125 
Q 3700 5100 4050 5050 
Q 3975 4900 3950 4562 
Q 3925 4225 3950 3600 
L 4800 3750 
Q 5225 3850 5650 3975 
L 5750 3500 
Q 5325 3450 4875 3375 
L 3975 3200 
Q 3975 2800 4025 2500 
L 5000 2675 
Q 5500 2775 5950 2925 
L 6025 2450 
Q 5575 2375 5075 2275 
L 4100 2100 
Q 4150 1600 4350 1175 
Q 4575 1350 4787 1575 
Q 5000 1800 5175 2075 
Q 5550 1775 5750 1675 
Q 5425 1525 5237 1337 
Q 5050 1150 4625 750 
Q 4925 250 5162 112 
Q 5400 -25 5500 100 
Q 5600 225 5675 625 
Q 5900 450 6200 350 
Q 5775 -750 5275 -537 
Q 4775 -325 4225 450 
Q 3875 175 3537 -62 
Q 3200 -300 2700 -550 
Q 2575 -300 2325 -100 
Q 2825 75 3175 275 
Q 3525 475 3975 850 
Q 3750 1350 3650 2025 
Q 2900 1900 2600 1800 
L 2525 2275 
Q 2825 2275 3550 2425 
Q 3500 2825 3500 3100 
Q 2825 2950 2575 2875 
L 2475 3350 
Q 2725 3350 3450 3500 
L 3450 4300 
z
M 1950 4875 
Q 1700 4650 1462 4237 
Q 1225 3825 825 3225 
Q 1425 3250 1650 3250 
Q 1875 3625 2050 4075 
Q 2300 3900 2600 3800 
Q 2350 3550 2087 3125 
Q 1825 2700 1175 1675 
Q 1850 1725 2375 1775 
Q 2300 1525 2300 1350 
Q 2125 1350 1525 1287 
Q 925 1225 550 1125 
Q 525 1375 400 1650 
Q 700 1725 950 2050 
Q 1200 2375 1475 2875 
Q 650 2825 425 2675 
Q 350 2950 200 3225 
Q 525 3450 825 3962 
Q 1125 4475 1375 5150 
Q 1625 4975 1950 4875 
z
M 2575 875 
Q 2550 600 2575 450 
Q 1950 325 1450 200 
Q 950 75 525 -75 
Q 450 200 250 475 
Q 950 550 1325 612 
Q 1700 675 2575 875 
z
M 4850 4025 
Q 4675 4300 4375 4675 
L 4775 4875 
Q 4875 4750 5275 4275 
Q 5025 4175 4850 4025 
z
" transform="scale(0.015625)"/>
      <path id="SimHei-5bf9" d="M 525 4250 
Q 900 4225 1400 4225 
L 2825 4225 
Q 2575 2625 2200 1750 
Q 2825 875 3125 400 
Q 2950 275 2725 75 
Q 2200 975 1950 1300 
Q 1650 775 1350 425 
Q 1050 75 600 -350 
Q 425 -125 200 -25 
Q 625 275 975 675 
Q 1325 1075 1650 1700 
Q 1050 2425 550 2900 
Q 700 3025 900 3225 
Q 1625 2425 1875 2150 
Q 2200 3050 2300 3825 
L 1400 3825 
Q 900 3825 525 3800 
L 525 4250 
z
M 2925 3700 
Q 3525 3675 3750 3675 
L 4825 3675 
L 4825 4425 
Q 4825 4750 4775 5125 
L 5350 5125 
Q 5325 4825 5325 4375 
L 5325 3675 
Q 5575 3675 6150 3700 
L 6150 3250 
Q 5575 3275 5325 3275 
L 5325 125 
Q 5350 -350 5012 -475 
Q 4675 -600 4250 -650 
Q 4175 -350 4025 -100 
Q 4575 -100 4712 -37 
Q 4850 25 4825 325 
L 4825 3275 
L 3775 3275 
Q 3550 3275 2925 3225 
L 2925 3700 
z
M 3450 2725 
Q 3875 1975 4175 1325 
Q 3850 1200 3700 1075 
Q 3475 1750 3050 2475 
Q 3225 2550 3450 2725 
z
" transform="scale(0.015625)"/>
      <path id="SimHei-6bd4" d="M 3775 5100 
Q 3750 4575 3750 4100 
L 3750 3050 
Q 4925 3600 5475 4175 
Q 5675 3900 5900 3675 
Q 5600 3500 5037 3187 
Q 4475 2875 3750 2550 
L 3750 450 
Q 3750 100 4050 100 
L 5000 100 
Q 5175 100 5262 250 
Q 5350 400 5450 900 
Q 5650 775 6025 675 
Q 5850 0 5650 -175 
Q 5450 -350 5225 -350 
L 3900 -350 
Q 3250 -350 3250 275 
L 3250 4000 
Q 3250 4550 3225 5100 
L 3775 5100 
z
M 1275 4975 
Q 1250 4575 1250 4000 
L 1250 3150 
L 1850 3150 
Q 2325 3150 2875 3175 
L 2875 2650 
Q 2325 2675 1850 2675 
L 1250 2675 
L 1250 475 
Q 1650 650 1962 812 
Q 2275 975 2850 1275 
Q 2900 950 2950 750 
Q 2375 475 1762 175 
Q 1150 -125 925 -325 
Q 750 -100 575 200 
Q 700 300 750 600 
L 750 3950 
Q 750 4550 725 4975 
L 1275 4975 
z
" transform="scale(0.015625)"/>
     </defs>
     <use xlink:href="#SimHei-4e09"/>
     <use xlink:href="#SimHei-4e2d" x="100"/>
     <use xlink:href="#SimHei-65b9" x="200"/>
     <use xlink:href="#SimHei-6cd5" x="300"/>
     <use xlink:href="#SimHei-7684" x="400"/>
     <use xlink:href="#SimHei-52" x="500"/>
     <use xlink:href="#SimHei-4f" x="550"/>
     <use xlink:href="#SimHei-43" x="600"/>
     <use xlink:href="#SimHei-66f2" x="650"/>
     <use xlink:href="#SimHei-7ebf" x="750"/>
     <use xlink:href="#SimHei-5bf9" x="850"/>
     <use xlink:href="#SimHei-6bd4" x="950"/>
    </g>
   </g>
   <g id="legend_1">
    <g id="patch_7">
     <path d="M 552.685 529.36625 
L 694.685 529.36625 
Q 696.685 529.36625 696.685 527.36625 
L 696.685 471.530312 
Q 696.685 469.530312 694.685 469.530312 
L 552.685 469.530312 
Q 550.685 469.530312 550.685 471.530312 
L 550.685 527.36625 
Q 550.685 529.36625 552.685 529.36625 
z
" style="fill: #ffffff; opacity: 0.8; stroke: #cccccc; stroke-linejoin: miter"/>
    </g>
    <g id="line2d_29">
     <path d="M 554.685 477.96 
L 564.685 477.96 
L 574.685 477.96 
" style="fill: none; stroke: #ffa500; stroke-width: 2; stroke-linecap: square"/>
    </g>
    <g id="text_16">
     <!-- 无提示, AUC = 0.83 -->
     <g transform="translate(582.685 481.46) scale(0.1 -0.1)">
      <defs>
       <path id="SimHei-65e0" d="M 4350 4725 
Q 4875 4725 5300 4750 
L 5300 4275 
Q 4925 4300 4350 4300 
L 3175 4300 
Q 3175 3475 3125 2800 
L 5050 2800 
Q 5500 2800 5875 2825 
L 5875 2350 
Q 5500 2375 5075 2375 
L 3950 2375 
L 3950 425 
Q 3950 100 4325 100 
L 5175 100 
Q 5450 100 5475 850 
Q 5725 700 6025 625 
Q 5900 -350 5450 -350 
L 4075 -350 
Q 3500 -325 3500 300 
L 3500 2375 
L 3075 2375 
Q 2875 1425 2587 937 
Q 2300 450 1925 112 
Q 1550 -225 800 -650 
Q 675 -375 375 -225 
Q 975 50 1350 337 
Q 1725 625 2062 1050 
Q 2400 1475 2600 2375 
L 1500 2375 
Q 875 2375 600 2350 
L 600 2825 
Q 875 2800 1500 2800 
L 2650 2800 
Q 2675 3550 2675 4300 
L 2000 4300 
Q 1500 4300 1075 4275 
L 1075 4750 
Q 1500 4725 2000 4725 
L 4350 4725 
z
" transform="scale(0.015625)"/>
       <path id="SimHei-63d0" d="M 5600 5025 
Q 5575 4625 5575 3900 
Q 5575 3200 5600 2825 
L 2750 2825 
Q 2775 3325 2775 3900 
Q 2775 4500 2750 5025 
L 5600 5025 
z
M 5250 2375 
Q 5675 2375 6075 2400 
L 6075 1950 
Q 5700 1975 5275 1975 
L 4400 1975 
L 4400 1275 
L 4775 1275 
Q 5225 1275 5625 1300 
L 5625 850 
Q 5225 875 4800 875 
L 4400 875 
L 4400 75 
Q 4675 25 5150 25 
Q 5625 25 6150 100 
Q 6050 -75 5950 -450 
Q 5200 -450 4650 -437 
Q 4100 -425 3700 -250 
Q 3300 -75 2950 250 
Q 2725 -225 2200 -650 
Q 2025 -450 1775 -325 
Q 2300 0 2537 562 
Q 2775 1125 2775 1675 
Q 3075 1550 3325 1525 
Q 3250 1375 3125 725 
Q 3450 300 3925 175 
L 3925 1975 
L 3375 1975 
Q 2850 1975 2350 1950 
L 2350 2400 
Q 2850 2375 3400 2375 
L 5250 2375 
z
M 1125 4475 
Q 1125 4900 1100 5200 
L 1625 5200 
Q 1600 4925 1600 4500 
L 1600 3825 
Q 1975 3825 2350 3850 
L 2350 3400 
Q 1975 3425 1600 3425 
L 1600 2300 
Q 1925 2475 2175 2625 
Q 2175 2425 2200 2175 
Q 1975 2050 1600 1850 
L 1600 0 
Q 1550 -350 1350 -437 
Q 1150 -525 650 -575 
Q 650 -275 500 0 
Q 875 -25 1000 0 
Q 1125 25 1125 225 
L 1125 1675 
Q 825 1550 425 1300 
Q 325 1625 200 1800 
Q 650 1900 1125 2125 
L 1125 3425 
Q 675 3425 350 3400 
L 350 3850 
Q 675 3825 1125 3825 
L 1125 4475 
z
M 5125 3225 
L 5125 3725 
L 3225 3725 
L 3225 3225 
L 5125 3225 
z
M 5125 4150 
L 5125 4600 
L 3225 4600 
L 3225 4150 
L 5125 4150 
z
" transform="scale(0.015625)"/>
       <path id="SimHei-793a" d="M 5175 3050 
Q 5500 3050 5975 3075 
L 5975 2575 
Q 5500 2625 5150 2625 
L 3500 2625 
L 3500 -75 
Q 3500 -350 3212 -487 
Q 2925 -625 2425 -675 
Q 2400 -425 2175 -100 
Q 2625 -125 2825 -87 
Q 3025 -50 3025 175 
L 3025 2625 
L 1400 2625 
Q 900 2625 500 2600 
L 500 3075 
Q 925 3050 1400 3050 
L 5175 3050 
z
M 4425 4775 
Q 4775 4775 5225 4800 
L 5225 4325 
Q 4775 4350 4425 4350 
L 2125 4350 
Q 1600 4350 1200 4325 
L 1200 4800 
Q 1600 4775 2125 4775 
L 4425 4775 
z
M 2225 1825 
Q 1950 1400 1650 900 
Q 1350 400 975 -125 
Q 775 75 500 150 
Q 900 600 1200 1087 
Q 1500 1575 1725 2075 
Q 1975 1925 2225 1825 
z
M 4500 2025 
Q 5450 925 5925 275 
Q 5650 125 5475 -25 
Q 5100 550 4125 1750 
Q 4325 1850 4500 2025 
z
" transform="scale(0.015625)"/>
       <path id="SimHei-2c" d="M 1100 125 
L 775 -550 
L 525 -550 
L 775 125 
L 525 125 
L 525 675 
L 1100 675 
L 1100 125 
z
" transform="scale(0.015625)"/>
       <path id="SimHei-20" transform="scale(0.015625)"/>
       <path id="SimHei-41" d="M 3075 125 
L 2475 125 
L 2125 1450 
L 1025 1450 
L 675 125 
L 75 125 
L 1325 4450 
L 1825 4450 
L 3075 125 
z
M 2000 1925 
L 1600 3450 
L 1550 3450 
L 1150 1925 
L 2000 1925 
z
" transform="scale(0.015625)"/>
       <path id="SimHei-55" d="M 2875 1375 
Q 2875 775 2562 425 
Q 2250 75 1575 75 
Q 900 75 587 425 
Q 275 775 275 1375 
L 275 4400 
L 850 4400 
L 850 1375 
Q 850 950 1050 750 
Q 1250 550 1575 550 
Q 1900 550 2100 750 
Q 2300 950 2300 1375 
L 2300 4400 
L 2875 4400 
L 2875 1375 
z
" transform="scale(0.015625)"/>
       <path id="SimHei-3d" d="M 2975 2900 
L 125 2900 
L 125 3300 
L 2975 3300 
L 2975 2900 
z
M 2975 1375 
L 125 1375 
L 125 1775 
L 2975 1775 
L 2975 1375 
z
" transform="scale(0.015625)"/>
       <path id="SimHei-33" d="M 250 1225 
L 700 1300 
Q 800 975 1025 762 
Q 1250 550 1587 562 
Q 1925 575 2125 837 
Q 2325 1100 2300 1437 
Q 2275 1775 2037 1962 
Q 1800 2150 1275 2225 
L 1275 2550 
Q 1800 2600 2037 2825 
Q 2275 3050 2250 3412 
Q 2225 3775 1925 3937 
Q 1625 4100 1287 3975 
Q 950 3850 750 3275 
L 300 3350 
Q 450 3800 712 4100 
Q 975 4400 1425 4450 
Q 1875 4500 2212 4337 
Q 2550 4175 2687 3837 
Q 2825 3500 2725 3100 
Q 2625 2700 2150 2400 
Q 2500 2250 2687 1950 
Q 2875 1650 2812 1162 
Q 2750 675 2375 375 
Q 2000 75 1525 87 
Q 1050 100 700 387 
Q 350 675 250 1225 
z
" transform="scale(0.015625)"/>
      </defs>
      <use xlink:href="#SimHei-65e0"/>
      <use xlink:href="#SimHei-63d0" x="100"/>
      <use xlink:href="#SimHei-793a" x="200"/>
      <use xlink:href="#SimHei-2c" x="300"/>
      <use xlink:href="#SimHei-20" x="350"/>
      <use xlink:href="#SimHei-41" x="400"/>
      <use xlink:href="#SimHei-55" x="450"/>
      <use xlink:href="#SimHei-43" x="500"/>
      <use xlink:href="#SimHei-20" x="550"/>
      <use xlink:href="#SimHei-3d" x="600"/>
      <use xlink:href="#SimHei-20" x="650"/>
      <use xlink:href="#SimHei-30" x="700"/>
      <use xlink:href="#SimHei-2e" x="750"/>
      <use xlink:href="#SimHei-38" x="800"/>
      <use xlink:href="#SimHei-33" x="850"/>
     </g>
    </g>
    <g id="line2d_30">
     <path d="M 554.685 492.17875 
L 564.685 492.17875 
L 574.685 492.17875 
" style="fill: none; stroke: #ff0000; stroke-width: 2; stroke-linecap: square"/>
    </g>
    <g id="text_17">
     <!-- 少样本提示, AUC = 0.58 -->
     <g transform="translate(582.685 495.67875) scale(0.1 -0.1)">
      <defs>
       <path id="SimHei-5c11" d="M 5375 1875 
Q 4775 1225 4250 775 
Q 3725 325 2937 -12 
Q 2150 -350 825 -550 
Q 750 -225 500 -50 
Q 1225 -25 2225 262 
Q 3225 550 3900 1137 
Q 4575 1725 4850 2225 
Q 5050 2000 5375 1875 
z
M 3425 5125 
Q 3400 4750 3400 4150 
L 3400 2400 
Q 3400 1950 3425 1350 
L 2875 1350 
Q 2900 1950 2900 2400 
L 2900 4150 
Q 2900 4725 2850 5125 
L 3425 5125 
z
M 2275 3875 
Q 2100 3650 1712 3112 
Q 1325 2575 775 1825 
Q 600 2025 325 2150 
Q 925 2775 1275 3312 
Q 1625 3850 1750 4175 
Q 2025 3975 2275 3875 
z
M 4400 4225 
Q 5500 3350 6025 2800 
Q 5775 2650 5600 2425 
Q 5200 2950 4050 3850 
Q 4300 4025 4400 4225 
z
" transform="scale(0.015625)"/>
       <path id="SimHei-6837" d="M 4350 4025 
Q 4600 4575 4850 5225 
Q 5250 5075 5375 5000 
Q 5150 4725 4850 4025 
L 4950 4025 
Q 5650 4050 5950 4050 
L 5950 3600 
Q 5675 3625 5175 3625 
L 4550 3625 
L 4550 2650 
L 4950 2650 
Q 5525 2675 5800 2675 
L 5800 2225 
Q 5475 2250 5025 2250 
L 4550 2250 
L 4550 1225 
L 5325 1225 
Q 5800 1250 6100 1250 
L 6100 800 
Q 5825 825 5325 825 
L 4550 825 
L 4550 275 
Q 4550 -250 4575 -600 
L 4075 -600 
L 4075 825 
L 3475 825 
Q 3000 825 2550 800 
L 2550 1275 
Q 3000 1250 3500 1225 
L 4075 1225 
L 4075 2250 
L 3650 2250 
Q 3225 2250 2900 2225 
L 2900 2700 
Q 3200 2675 3675 2650 
L 4075 2650 
L 4075 3625 
L 3475 3625 
Q 3050 3625 2750 3600 
L 2750 4075 
Q 3050 4050 3475 4025 
L 4350 4025 
z
M 1325 4350 
Q 1325 4775 1300 5125 
L 1825 5125 
Q 1800 4725 1800 4350 
L 1800 3750 
Q 2125 3750 2475 3775 
L 2475 3325 
Q 2125 3350 1800 3350 
L 1800 2425 
Q 2000 2600 2100 2675 
Q 2375 2325 2725 1775 
Q 2575 1700 2300 1475 
Q 2025 1975 1800 2350 
L 1800 475 
Q 1800 -50 1825 -575 
L 1300 -575 
Q 1325 -25 1325 475 
L 1325 2250 
Q 925 1300 525 725 
Q 425 950 225 1175 
Q 950 2150 1225 3350 
Q 825 3350 350 3325 
L 350 3775 
Q 825 3750 1325 3750 
L 1325 4350 
z
M 3575 5200 
Q 3800 4775 3950 4350 
Q 3650 4250 3525 4175 
Q 3350 4600 3150 5000 
Q 3425 5125 3575 5200 
z
" transform="scale(0.015625)"/>
       <path id="SimHei-672c" d="M 2950 3925 
L 2950 4425 
Q 2950 4825 2925 5175 
L 3475 5175 
Q 3450 4900 3450 4450 
L 3450 3925 
L 4850 3925 
Q 5275 3925 5850 3950 
L 5850 3475 
Q 5300 3500 4875 3500 
L 3850 3500 
Q 4200 2350 4862 1687 
Q 5525 1025 6075 800 
Q 5850 625 5650 325 
Q 4800 900 4262 1637 
Q 3725 2375 3450 3350 
L 3450 1000 
L 3775 1000 
Q 4175 1000 4600 1025 
L 4600 550 
Q 4175 575 3750 575 
L 3450 575 
Q 3450 0 3475 -600 
L 2925 -600 
Q 2950 0 2950 575 
L 2625 575 
Q 2225 575 1825 550 
L 1825 1025 
Q 2225 1000 2625 1000 
L 2950 1000 
L 2950 3300 
Q 2550 2275 2062 1575 
Q 1575 875 750 175 
Q 550 450 275 575 
Q 1100 1075 1650 1825 
Q 2200 2575 2525 3500 
L 1425 3500 
Q 1025 3500 575 3475 
L 575 3950 
Q 1025 3925 1400 3925 
L 2950 3925 
z
" transform="scale(0.015625)"/>
       <path id="SimHei-35" d="M 550 1325 
Q 725 650 1150 575 
Q 1575 500 1837 662 
Q 2100 825 2212 1087 
Q 2325 1350 2312 1675 
Q 2300 2000 2137 2225 
Q 1975 2450 1725 2525 
Q 1475 2600 1162 2525 
Q 850 2450 650 2175 
L 225 2225 
Q 275 2375 700 4375 
L 2675 4375 
L 2675 3925 
L 1075 3925 
Q 950 3250 825 2850 
Q 1200 3025 1525 3012 
Q 1850 3000 2150 2862 
Q 2450 2725 2587 2487 
Q 2725 2250 2787 2012 
Q 2850 1775 2837 1500 
Q 2825 1225 2725 937 
Q 2625 650 2425 462 
Q 2225 275 1937 162 
Q 1650 50 1275 75 
Q 900 100 562 350 
Q 225 600 100 1200 
L 550 1325 
z
" transform="scale(0.015625)"/>
      </defs>
      <use xlink:href="#SimHei-5c11"/>
      <use xlink:href="#SimHei-6837" x="100"/>
      <use xlink:href="#SimHei-672c" x="200"/>
      <use xlink:href="#SimHei-63d0" x="300"/>
      <use xlink:href="#SimHei-793a" x="400"/>
      <use xlink:href="#SimHei-2c" x="500"/>
      <use xlink:href="#SimHei-20" x="550"/>
      <use xlink:href="#SimHei-41" x="600"/>
      <use xlink:href="#SimHei-55" x="650"/>
      <use xlink:href="#SimHei-43" x="700"/>
      <use xlink:href="#SimHei-20" x="750"/>
      <use xlink:href="#SimHei-3d" x="800"/>
      <use xlink:href="#SimHei-20" x="850"/>
      <use xlink:href="#SimHei-30" x="900"/>
      <use xlink:href="#SimHei-2e" x="950"/>
      <use xlink:href="#SimHei-35" x="1000"/>
      <use xlink:href="#SimHei-38" x="1050"/>
     </g>
    </g>
    <g id="line2d_31">
     <path d="M 554.685 506.358437 
L 564.685 506.358437 
L 574.685 506.358437 
" style="fill: none; stroke: #0000ff; stroke-width: 2; stroke-linecap: square"/>
    </g>
    <g id="text_18">
     <!-- 思维链, AUC = 0.64 -->
     <g transform="translate(582.685 509.858437) scale(0.1 -0.1)">
      <defs>
       <path id="SimHei-601d" d="M 5450 4950 
Q 5425 4225 5425 3525 
Q 5425 2825 5450 2125 
L 1075 2125 
Q 1100 2850 1100 3550 
Q 1100 4250 1075 4950 
L 5450 4950 
z
M 2450 1500 
Q 2425 1200 2425 900 
L 2425 300 
Q 2400 -50 2800 -25 
L 4075 -25 
Q 4250 -25 4375 62 
Q 4500 150 4575 725 
Q 4825 500 5125 425 
Q 4950 -150 4712 -300 
Q 4475 -450 4175 -450 
L 2425 -450 
Q 1975 -450 1950 25 
L 1950 900 
Q 1950 1175 1925 1500 
L 2450 1500 
z
M 4950 2550 
L 4950 3325 
L 3500 3325 
L 3500 2550 
L 4950 2550 
z
M 3025 2550 
L 3025 3325 
L 1600 3325 
L 1600 2550 
L 3025 2550 
z
M 4950 3775 
L 4950 4525 
L 3500 4525 
L 3500 3775 
L 4950 3775 
z
M 3025 3775 
L 3025 4525 
L 1600 4525 
L 1600 3775 
L 3025 3775 
z
M 1525 1525 
Q 1175 800 750 -50 
Q 475 100 250 200 
Q 625 750 1000 1750 
Q 1225 1550 1525 1525 
z
M 5200 1725 
Q 5750 1100 6150 550 
Q 5925 400 5725 200 
Q 5350 800 4800 1425 
Q 4950 1500 5200 1725 
z
M 3400 1875 
Q 3675 1475 4000 975 
Q 3675 800 3525 675 
Q 3250 1250 2975 1625 
Q 3200 1725 3400 1875 
z
" transform="scale(0.015625)"/>
       <path id="SimHei-7ef4" d="M 3700 5075 
Q 3575 4900 3475 4637 
Q 3375 4375 3300 4150 
L 4900 4150 
Q 5400 4150 5800 4175 
L 5800 3725 
Q 5375 3750 4900 3750 
L 4650 3750 
L 4650 2900 
Q 5250 2900 5625 2925 
L 5625 2475 
Q 5250 2500 4650 2500 
L 4650 1600 
Q 5275 1600 5650 1625 
L 5650 1200 
Q 5275 1225 4650 1225 
L 4650 325 
L 5050 325 
Q 5550 325 6050 350 
L 6050 -75 
Q 5550 -50 5050 -50 
L 3250 -50 
L 3250 -625 
L 2775 -625 
Q 2800 -150 2800 650 
L 2800 3075 
Q 2650 2700 2475 2375 
Q 2225 2550 2050 2650 
Q 2275 2975 2450 3312 
Q 2625 3650 2837 4250 
Q 3050 4850 3100 5250 
Q 3375 5150 3700 5075 
z
M 1750 5000 
Q 1525 4775 1300 4225 
Q 1075 3675 825 3150 
Q 1175 3200 1525 3225 
Q 1775 3775 1825 4100 
L 2375 3900 
Q 2225 3725 1950 3200 
Q 1675 2675 1125 1575 
L 2250 1725 
Q 2150 1425 2125 1250 
Q 1800 1250 1387 1187 
Q 975 1125 575 1000 
Q 475 1300 425 1525 
Q 650 1625 875 1987 
Q 1100 2350 1325 2800 
Q 1050 2775 812 2737 
Q 575 2700 400 2625 
Q 325 2825 200 3125 
Q 425 3275 687 3875 
Q 950 4475 1150 5175 
Q 1425 5075 1750 5000 
z
M 2475 650 
Q 2450 400 2450 200 
Q 2000 125 1450 12 
Q 900 -100 450 -275 
Q 350 0 250 300 
Q 750 350 1187 412 
Q 1625 475 2475 650 
z
M 4200 1600 
L 4200 2500 
L 3250 2500 
L 3250 1600 
L 4200 1600 
z
M 4200 325 
L 4200 1225 
L 3250 1225 
L 3250 325 
L 4200 325 
z
M 4200 2900 
L 4200 3750 
L 3250 3750 
L 3250 2900 
L 4200 2900 
z
M 4500 5225 
Q 4600 5075 4900 4475 
Q 4700 4400 4475 4275 
Q 4350 4575 4100 4975 
L 4500 5225 
z
" transform="scale(0.015625)"/>
       <path id="SimHei-94fe" d="M 4125 4400 
Q 4275 4675 4375 5250 
L 4975 5050 
Q 4825 4825 4625 4400 
L 5325 4400 
Q 5700 4400 6075 4425 
L 6075 4000 
Q 5700 4025 5325 4025 
L 4525 4025 
Q 4175 3200 4000 2725 
L 4600 2725 
Q 4600 3025 4575 3400 
L 5075 3400 
Q 5050 2900 5050 2725 
L 5300 2725 
Q 5600 2725 5950 2750 
L 5950 2325 
Q 5600 2350 5325 2350 
L 5050 2350 
L 5050 1525 
L 5350 1525 
Q 5700 1525 6025 1550 
L 6025 1125 
Q 5725 1150 5350 1150 
L 5050 1150 
Q 5050 775 5075 200 
L 4575 200 
Q 4600 775 4600 1150 
L 4200 1150 
Q 3850 1150 3500 1125 
L 3500 1550 
Q 3850 1525 4200 1525 
L 4600 1525 
L 4600 2350 
L 4225 2350 
Q 3750 2350 3550 2250 
Q 3475 2475 3375 2725 
Q 3575 2825 3750 3225 
Q 3925 3625 4050 4025 
Q 3875 4025 3475 4000 
L 3475 4425 
Q 3800 4400 4125 4400 
z
M 1700 3175 
Q 1875 3175 2075 3200 
L 2075 2750 
Q 1675 2775 1525 2775 
L 1525 2075 
Q 1825 2075 2175 2100 
L 2175 1625 
Q 1825 1675 1525 1675 
L 1525 450 
Q 2025 850 2200 1050 
Q 2250 825 2400 600 
Q 2150 450 1850 187 
Q 1550 -75 1225 -400 
Q 1075 -225 875 -50 
Q 1050 125 1100 575 
L 1100 1675 
Q 775 1675 375 1650 
L 375 2100 
Q 775 2075 1100 2075 
L 1100 2775 
Q 950 2775 725 2750 
L 725 3150 
L 525 2900 
Q 400 3075 200 3275 
Q 575 3650 787 4125 
Q 1000 4600 1125 5150 
Q 1525 4975 1750 4925 
Q 1575 4775 1487 4575 
Q 1400 4375 1300 4200 
Q 1725 4200 2200 4225 
L 2200 3775 
Q 1675 3800 1150 3800 
Q 1000 3550 775 3225 
Q 950 3225 1125 3175 
L 1700 3175 
z
M 2325 2975 
Q 2550 2950 2750 2950 
L 3225 2950 
Q 3175 2550 3175 2250 
L 3175 550 
Q 3375 350 3762 225 
Q 4150 100 4600 62 
Q 5050 25 6200 125 
Q 6025 -150 5975 -450 
Q 5150 -450 4662 -400 
Q 4175 -350 3900 -275 
Q 3625 -200 3275 37 
Q 2925 275 2737 75 
Q 2550 -125 2350 -350 
Q 2175 -75 2000 100 
Q 2500 425 2750 550 
L 2750 2550 
L 2650 2550 
Q 2525 2550 2325 2500 
L 2325 2975 
z
M 2875 4850 
Q 3075 4425 3225 3850 
Q 3000 3775 2775 3650 
Q 2625 4225 2425 4700 
Q 2600 4775 2875 4850 
z
" transform="scale(0.015625)"/>
      </defs>
      <use xlink:href="#SimHei-601d"/>
      <use xlink:href="#SimHei-7ef4" x="100"/>
      <use xlink:href="#SimHei-94fe" x="200"/>
      <use xlink:href="#SimHei-2c" x="300"/>
      <use xlink:href="#SimHei-20" x="350"/>
      <use xlink:href="#SimHei-41" x="400"/>
      <use xlink:href="#SimHei-55" x="450"/>
      <use xlink:href="#SimHei-43" x="500"/>
      <use xlink:href="#SimHei-20" x="550"/>
      <use xlink:href="#SimHei-3d" x="600"/>
      <use xlink:href="#SimHei-20" x="650"/>
      <use xlink:href="#SimHei-30" x="700"/>
      <use xlink:href="#SimHei-2e" x="750"/>
      <use xlink:href="#SimHei-36" x="800"/>
      <use xlink:href="#SimHei-34" x="850"/>
     </g>
    </g>
    <g id="line2d_32">
     <path d="M 554.685 520.61625 
L 564.685 520.61625 
L 574.685 520.61625 
" style="fill: none; stroke-dasharray: 7.4,3.2; stroke-dashoffset: 0; stroke: #000080; stroke-width: 2"/>
    </g>
    <g id="text_19">
     <!-- 随机猜测 -->
     <g transform="translate(582.685 524.11625) scale(0.1 -0.1)">
      <defs>
       <path id="SimHei-968f" d="M 4050 4425 
Q 4325 5025 4350 5300 
Q 4675 5150 4950 5075 
Q 4825 4925 4525 4400 
L 5350 4400 
Q 5725 4400 6075 4425 
L 6075 4000 
Q 5775 4025 5350 4025 
L 4400 4025 
Q 4200 3675 3975 3350 
L 5800 3350 
Q 5775 3000 5775 2525 
L 5775 850 
Q 5775 600 5612 525 
Q 5450 450 5050 375 
Q 5025 600 4900 850 
Q 5350 775 5300 1250 
L 4175 1250 
L 4175 425 
L 3700 425 
Q 3725 775 3725 1200 
L 3725 3000 
L 3550 2725 
Q 3350 2900 3125 3000 
Q 3525 3350 3875 4025 
Q 3675 4025 3325 4000 
L 3325 4450 
Q 3675 4425 4050 4425 
z
M 2225 4900 
Q 2125 4725 1575 2925 
Q 1875 2525 2037 2150 
Q 2200 1775 2187 1462 
Q 2175 1150 1900 937 
Q 1625 725 1325 650 
Q 1275 875 1075 1200 
Q 1500 1200 1612 1350 
Q 1725 1500 1625 1900 
Q 1525 2300 1075 2875 
Q 1475 4025 1575 4550 
L 875 4550 
L 875 -625 
L 400 -625 
Q 425 0 425 675 
L 425 3800 
Q 425 4425 400 4900 
L 2225 4900 
z
M 3100 2825 
Q 3075 2475 3075 2050 
L 3075 525 
Q 3125 300 3750 175 
Q 4375 50 4787 37 
Q 5200 25 5500 37 
Q 5800 50 6175 125 
Q 6025 -150 6025 -425 
Q 5350 -425 4837 -387 
Q 4325 -350 3912 -262 
Q 3500 -175 3200 -25 
Q 2900 125 2737 -12 
Q 2575 -150 2300 -475 
Q 2150 -275 1950 -125 
Q 2275 175 2625 400 
L 2625 2425 
L 2175 2425 
L 2175 2850 
Q 2425 2825 3100 2825 
z
M 5300 1600 
L 5300 2125 
L 4175 2125 
L 4175 1600 
L 5300 1600 
z
M 5300 2475 
L 5300 3000 
L 4175 3000 
L 4175 2475 
L 5300 2475 
z
M 2750 4575 
Q 2975 4000 3125 3425 
Q 2875 3400 2625 3275 
Q 2500 3900 2275 4425 
Q 2525 4475 2750 4575 
z
" transform="scale(0.015625)"/>
       <path id="SimHei-673a" d="M 5100 4775 
Q 5075 4075 5075 3575 
L 5075 325 
Q 5075 0 5225 -25 
Q 5375 -50 5475 -37 
Q 5575 -25 5612 137 
Q 5650 300 5650 625 
Q 5875 500 6175 425 
Q 6075 -100 5975 -275 
Q 5875 -450 5650 -450 
L 5125 -450 
Q 4825 -450 4687 -312 
Q 4550 -175 4575 250 
L 4575 4350 
L 3625 4350 
Q 3625 2925 3587 2137 
Q 3550 1350 3362 712 
Q 3175 75 2625 -575 
Q 2500 -425 2175 -175 
Q 2525 100 2737 500 
Q 2950 900 3025 1325 
Q 3100 1750 3125 2225 
Q 3150 2700 3150 3425 
Q 3150 4175 3125 4775 
L 5100 4775 
z
M 2150 2725 
Q 2550 2175 2750 1875 
Q 2575 1725 2325 1550 
Q 2175 1875 1800 2425 
L 1800 600 
Q 1800 100 1825 -525 
L 1275 -525 
Q 1300 100 1300 600 
L 1300 2200 
Q 1175 1825 1025 1487 
Q 875 1150 600 725 
Q 375 975 200 1125 
Q 400 1350 725 2000 
Q 1050 2650 1225 3450 
L 1075 3450 
Q 725 3450 375 3400 
L 375 3875 
Q 725 3850 1050 3850 
L 1300 3850 
L 1300 4350 
Q 1300 4750 1275 5100 
L 1850 5100 
Q 1800 4850 1800 4350 
L 1800 3850 
L 2075 3850 
Q 2350 3850 2700 3875 
L 2700 3425 
Q 2150 3450 1800 3450 
L 1800 2450 
Q 1950 2575 2150 2725 
z
" transform="scale(0.015625)"/>
       <path id="SimHei-731c" d="M 5725 2425 
Q 5700 2075 5700 1550 
L 5700 200 
Q 5700 -300 5537 -425 
Q 5375 -550 4875 -625 
Q 4800 -325 4650 -100 
Q 5025 -100 5125 -75 
Q 5225 -50 5225 175 
L 5225 400 
L 3225 400 
L 3225 -575 
L 2725 -575 
Q 2750 -75 2750 525 
L 2750 1350 
Q 2750 2025 2725 2425 
L 5725 2425 
z
M 2550 4675 
Q 2350 4550 2200 4387 
Q 2050 4225 1775 3975 
Q 1975 3525 2075 2925 
Q 2175 2325 2175 1600 
Q 2175 875 2037 337 
Q 1900 -200 1562 -362 
Q 1225 -525 875 -625 
Q 800 -350 650 -100 
Q 1075 -25 1300 87 
Q 1525 200 1625 600 
Q 1725 1000 1737 1375 
Q 1750 1750 1750 2125 
Q 1200 1400 550 925 
Q 400 1175 225 1325 
Q 575 1500 1025 1962 
Q 1475 2425 1650 2725 
Q 1600 3225 1425 3650 
Q 1050 3275 525 2900 
Q 375 3150 225 3300 
Q 675 3500 1200 4025 
Q 850 4425 525 4600 
Q 675 4775 825 5000 
Q 1200 4725 1525 4350 
Q 1875 4650 2150 5100 
Q 2325 4900 2550 4675 
z
M 3925 4700 
Q 3925 5000 3900 5250 
L 4425 5250 
Q 4400 4975 4400 4700 
L 5100 4700 
Q 5575 4700 5925 4725 
L 5925 4300 
Q 5575 4325 5100 4325 
L 4400 4325 
L 4400 3925 
L 5100 3925 
Q 5450 3925 5800 3950 
L 5800 3525 
Q 5425 3550 5075 3550 
L 4400 3550 
L 4400 3100 
L 5325 3100 
Q 5725 3100 6150 3125 
L 6150 2700 
Q 5825 2725 5300 2725 
L 3250 2725 
Q 2725 2725 2325 2700 
L 2325 3125 
Q 2775 3100 3225 3100 
L 3925 3100 
L 3925 3550 
L 3350 3550 
Q 3025 3550 2675 3525 
L 2675 3950 
Q 3025 3925 3325 3925 
L 3925 3925 
L 3925 4325 
L 3275 4325 
Q 2950 4325 2600 4300 
L 2600 4725 
Q 2925 4700 3250 4700 
L 3925 4700 
z
M 5225 1575 
L 5225 2050 
L 3225 2050 
L 3225 1575 
L 5225 1575 
z
M 5225 775 
L 5225 1225 
L 3225 1225 
L 3225 775 
L 5225 775 
z
" transform="scale(0.015625)"/>
       <path id="SimHei-6d4b" d="M 4025 4725 
Q 4000 4475 4000 4000 
L 4000 2225 
Q 4000 1775 4025 1350 
L 3550 1350 
L 3550 4325 
L 2350 4325 
L 2350 1325 
L 1900 1325 
Q 1925 1775 1925 2225 
L 1925 4000 
Q 1925 4200 1900 4725 
L 4025 4725 
z
M 5900 5075 
Q 5875 4800 5875 4375 
L 5875 0 
Q 5875 -325 5650 -425 
Q 5425 -525 4975 -600 
Q 4925 -325 4775 -50 
Q 5125 -50 5262 -25 
Q 5400 0 5400 250 
L 5400 4375 
Q 5400 4775 5375 5075 
L 5900 5075 
z
M 3275 3725 
Q 3225 3400 3200 2325 
Q 3175 1250 2837 550 
Q 2500 -150 2075 -600 
Q 1850 -400 1600 -325 
Q 2200 250 2475 962 
Q 2750 1675 2762 2475 
Q 2775 3275 2725 3800 
Q 3000 3750 3275 3725 
z
M 4950 4275 
Q 4925 4000 4925 3575 
L 4925 1825 
Q 4925 1300 4950 850 
L 4450 850 
Q 4475 1150 4475 1825 
L 4475 3575 
Q 4475 4000 4450 4275 
L 4950 4275 
z
M 1700 1675 
Q 1375 1075 1112 487 
Q 850 -100 725 -400 
Q 500 -200 200 -25 
Q 475 300 762 850 
Q 1050 1400 1250 2000 
Q 1475 1825 1700 1675 
z
M 3400 1050 
Q 3800 650 4300 -125 
Q 4100 -225 3875 -450 
Q 3475 275 3025 750 
Q 3225 875 3400 1050 
z
M 600 3525 
Q 1125 3125 1500 2775 
Q 1300 2575 1150 2375 
Q 825 2775 300 3150 
Q 450 3300 600 3525 
z
M 1350 4000 
Q 950 4375 475 4675 
Q 625 4850 775 5050 
Q 1300 4700 1675 4375 
Q 1500 4250 1350 4000 
z
" transform="scale(0.015625)"/>
      </defs>
      <use xlink:href="#SimHei-968f"/>
      <use xlink:href="#SimHei-673a" x="100"/>
      <use xlink:href="#SimHei-731c" x="200"/>
      <use xlink:href="#SimHei-6d4b" x="300"/>
     </g>
    </g>
   </g>
  </g>
 </g>
 <defs>
  <clipPath id="p18420f0930">
   <rect x="48.02375" y="28.3425" width="653.66125" height="506.02375"/>
  </clipPath>
 </defs>
</svg>
