<?xml version="1.0" encoding="utf-8" standalone="no"?>
<!DOCTYPE svg PUBLIC "-//W3C//DTD SVG 1.1//EN"
  "http://www.w3.org/Graphics/SVG/1.1/DTD/svg11.dtd">
<svg xmlns:xlink="http://www.w3.org/1999/xlink" width="576pt" height="504pt" viewBox="0 0 576 504" xmlns="http://www.w3.org/2000/svg" version="1.1">
 <metadata>
  <rdf:RDF xmlns:dc="http://purl.org/dc/elements/1.1/" xmlns:cc="http://creativecommons.org/ns#" xmlns:rdf="http://www.w3.org/1999/02/22-rdf-syntax-ns#">
   <cc:Work>
    <dc:type rdf:resource="http://purl.org/dc/dcmitype/StillImage"/>
    <dc:date>2026-01-12T02:46:14.358907</dc:date>
    <dc:format>image/svg+xml</dc:format>
    <dc:creator>
     <cc:Agent>
      <dc:title>Matplotlib v3.7.1, https://matplotlib.org/</dc:title>
     </cc:Agent>
    </dc:creator>
   </cc:Work>
  </rdf:RDF>
 </metadata>
 <defs>
  <style type="text/css">*{stroke-linejoin: round; stroke-linecap: butt}</style>
 </defs>
 <g id="figure_1">
  <g id="patch_1">
   <path d="M 0 504 
L 576 504 
L 576 0 
L 0 0 
z
" style="fill: #ffffff"/>
  </g>
  <g id="axes_1">
   <g id="patch_2">
    <path d="M 49.47875 477.09875 
L 565.2 477.09875 
L 565.2 42.5225 
L 49.47875 42.5225 
z
" style="fill: #ffffff"/>
   </g>
   <g id="patch_3">
    <path d="M 117.972979 477.09875 
L 174.37999 477.09875 
L 174.37999 341.668193 
L 117.972979 341.668193 
z
" clip-path="url(#pc0c8bcbf1d)" style="fill: #0000ff; opacity: 0.7"/>
   </g>
   <g id="patch_4">
    <path d="M 279.135869 477.09875 
L 335.542881 477.09875 
L 335.542881 318.398451 
L 279.135869 318.398451 
z
" clip-path="url(#pc0c8bcbf1d)" style="fill: #008000; opacity: 0.7"/>
   </g>
   <g id="patch_5">
    <path d="M 440.29876 477.09875 
L 496.705771 477.09875 
L 496.705771 296.243891 
L 440.29876 296.243891 
z
" clip-path="url(#pc0c8bcbf1d)" style="fill: #ff0000; opacity: 0.7"/>
   </g>
   <g id="matplotlib.axis_1">
    <g id="xtick_1">
     <g id="line2d_1">
      <defs>
       <path id="m4824376185" d="M 0 0 
L 0 3.5 
" style="stroke: #000000; stroke-width: 0.8"/>
      </defs>
      <g>
       <use xlink:href="#m4824376185" x="146.176484" y="477.09875" style="stroke: #000000; stroke-width: 0.8"/>
      </g>
     </g>
     <g id="text_1">
      <!-- 无提示 -->
      <g transform="translate(131.176484 492.028437) scale(0.1 -0.1)">
       <defs>
        <path id="SimHei-65e0" d="M 4350 4725 
Q 4875 4725 5300 4750 
L 5300 4275 
Q 4925 4300 4350 4300 
L 3175 4300 
Q 3175 3475 3125 2800 
L 5050 2800 
Q 5500 2800 5875 2825 
L 5875 2350 
Q 5500 2375 5075 2375 
L 3950 2375 
L 3950 425 
Q 3950 100 4325 100 
L 5175 100 
Q 5450 100 5475 850 
Q 5725 700 6025 625 
Q 5900 -350 5450 -350 
L 4075 -350 
Q 3500 -325 3500 300 
L 3500 2375 
L 3075 2375 
Q 2875 1425 2587 937 
Q 2300 450 1925 112 
Q 1550 -225 800 -650 
Q 675 -375 375 -225 
Q 975 50 1350 337 
Q 1725 625 2062 1050 
Q 2400 1475 2600 2375 
L 1500 2375 
Q 875 2375 600 2350 
L 600 2825 
Q 875 2800 1500 2800 
L 2650 2800 
Q 2675 3550 2675 4300 
L 2000 4300 
Q 1500 4300 1075 4275 
L 1075 4750 
Q 1500 4725 2000 4725 
L 4350 4725 
z
" transform="scale(0.015625)"/>
        <path id="SimHei-63d0" d="M 5600 5025 
Q 5575 4625 5575 3900 
Q 5575 3200 5600 2825 
L 2750 2825 
Q 2775 3325 2775 3900 
Q 2775 4500 2750 5025 
L 5600 5025 
z
M 5250 2375 
Q 5675 2375 6075 2400 
L 6075 1950 
Q 5700 1975 5275 1975 
L 4400 1975 
L 4400 1275 
L 4775 1275 
Q 5225 1275 5625 1300 
L 5625 850 
Q 5225 875 4800 875 
L 4400 875 
L 4400 75 
Q 4675 25 5150 25 
Q 5625 25 6150 100 
Q 6050 -75 5950 -450 
Q 5200 -450 4650 -437 
Q 4100 -425 3700 -250 
Q 3300 -75 2950 250 
Q 2725 -225 2200 -650 
Q 2025 -450 1775 -325 
Q 2300 0 2537 562 
Q 2775 1125 2775 1675 
Q 3075 1550 3325 1525 
Q 3250 1375 3125 725 
Q 3450 300 3925 175 
L 3925 1975 
L 3375 1975 
Q 2850 1975 2350 1950 
L 2350 2400 
Q 2850 2375 3400 2375 
L 5250 2375 
z
M 1125 4475 
Q 1125 4900 1100 5200 
L 1625 5200 
Q 1600 4925 1600 4500 
L 1600 3825 
Q 1975 3825 2350 3850 
L 2350 3400 
Q 1975 3425 1600 3425 
L 1600 2300 
Q 1925 2475 2175 2625 
Q 2175 2425 2200 2175 
Q 1975 2050 1600 1850 
L 1600 0 
Q 1550 -350 1350 -437 
Q 1150 -525 650 -575 
Q 650 -275 500 0 
Q 875 -25 1000 0 
Q 1125 25 1125 225 
L 1125 1675 
Q 825 1550 425 1300 
Q 325 1625 200 1800 
Q 650 1900 1125 2125 
L 1125 3425 
Q 675 3425 350 3400 
L 350 3850 
Q 675 3825 1125 3825 
L 1125 4475 
z
M 5125 3225 
L 5125 3725 
L 3225 3725 
L 3225 3225 
L 5125 3225 
z
M 5125 4150 
L 5125 4600 
L 3225 4600 
L 3225 4150 
L 5125 4150 
z
" transform="scale(0.015625)"/>
        <path id="SimHei-793a" d="M 5175 3050 
Q 5500 3050 5975 3075 
L 5975 2575 
Q 5500 2625 5150 2625 
L 3500 2625 
L 3500 -75 
Q 3500 -350 3212 -487 
Q 2925 -625 2425 -675 
Q 2400 -425 2175 -100 
Q 2625 -125 2825 -87 
Q 3025 -50 3025 175 
L 3025 2625 
L 1400 2625 
Q 900 2625 500 2600 
L 500 3075 
Q 925 3050 1400 3050 
L 5175 3050 
z
M 4425 4775 
Q 4775 4775 5225 4800 
L 5225 4325 
Q 4775 4350 4425 4350 
L 2125 4350 
Q 1600 4350 1200 4325 
L 1200 4800 
Q 1600 4775 2125 4775 
L 4425 4775 
z
M 2225 1825 
Q 1950 1400 1650 900 
Q 1350 400 975 -125 
Q 775 75 500 150 
Q 900 600 1200 1087 
Q 1500 1575 1725 2075 
Q 1975 1925 2225 1825 
z
M 4500 2025 
Q 5450 925 5925 275 
Q 5650 125 5475 -25 
Q 5100 550 4125 1750 
Q 4325 1850 4500 2025 
z
" transform="scale(0.015625)"/>
       </defs>
       <use xlink:href="#SimHei-65e0"/>
       <use xlink:href="#SimHei-63d0" x="100"/>
       <use xlink:href="#SimHei-793a" x="200"/>
      </g>
     </g>
    </g>
    <g id="xtick_2">
     <g id="line2d_2">
      <g>
       <use xlink:href="#m4824376185" x="307.339375" y="477.09875" style="stroke: #000000; stroke-width: 0.8"/>
      </g>
     </g>
     <g id="text_2">
      <!-- 少样本提示 -->
      <g transform="translate(282.339375 492.0675) scale(0.1 -0.1)">
       <defs>
        <path id="SimHei-5c11" d="M 5375 1875 
Q 4775 1225 4250 775 
Q 3725 325 2937 -12 
Q 2150 -350 825 -550 
Q 750 -225 500 -50 
Q 1225 -25 2225 262 
Q 3225 550 3900 1137 
Q 4575 1725 4850 2225 
Q 5050 2000 5375 1875 
z
M 3425 5125 
Q 3400 4750 3400 4150 
L 3400 2400 
Q 3400 1950 3425 1350 
L 2875 1350 
Q 2900 1950 2900 2400 
L 2900 4150 
Q 2900 4725 2850 5125 
L 3425 5125 
z
M 2275 3875 
Q 2100 3650 1712 3112 
Q 1325 2575 775 1825 
Q 600 2025 325 2150 
Q 925 2775 1275 3312 
Q 1625 3850 1750 4175 
Q 2025 3975 2275 3875 
z
M 4400 4225 
Q 5500 3350 6025 2800 
Q 5775 2650 5600 2425 
Q 5200 2950 4050 3850 
Q 4300 4025 4400 4225 
z
" transform="scale(0.015625)"/>
        <path id="SimHei-6837" d="M 4350 4025 
Q 4600 4575 4850 5225 
Q 5250 5075 5375 5000 
Q 5150 4725 4850 4025 
L 4950 4025 
Q 5650 4050 5950 4050 
L 5950 3600 
Q 5675 3625 5175 3625 
L 4550 3625 
L 4550 2650 
L 4950 2650 
Q 5525 2675 5800 2675 
L 5800 2225 
Q 5475 2250 5025 2250 
L 4550 2250 
L 4550 1225 
L 5325 1225 
Q 5800 1250 6100 1250 
L 6100 800 
Q 5825 825 5325 825 
L 4550 825 
L 4550 275 
Q 4550 -250 4575 -600 
L 4075 -600 
L 4075 825 
L 3475 825 
Q 3000 825 2550 800 
L 2550 1275 
Q 3000 1250 3500 1225 
L 4075 1225 
L 4075 2250 
L 3650 2250 
Q 3225 2250 2900 2225 
L 2900 2700 
Q 3200 2675 3675 2650 
L 4075 2650 
L 4075 3625 
L 3475 3625 
Q 3050 3625 2750 3600 
L 2750 4075 
Q 3050 4050 3475 4025 
L 4350 4025 
z
M 1325 4350 
Q 1325 4775 1300 5125 
L 1825 5125 
Q 1800 4725 1800 4350 
L 1800 3750 
Q 2125 3750 2475 3775 
L 2475 3325 
Q 2125 3350 1800 3350 
L 1800 2425 
Q 2000 2600 2100 2675 
Q 2375 2325 2725 1775 
Q 2575 1700 2300 1475 
Q 2025 1975 1800 2350 
L 1800 475 
Q 1800 -50 1825 -575 
L 1300 -575 
Q 1325 -25 1325 475 
L 1325 2250 
Q 925 1300 525 725 
Q 425 950 225 1175 
Q 950 2150 1225 3350 
Q 825 3350 350 3325 
L 350 3775 
Q 825 3750 1325 3750 
L 1325 4350 
z
M 3575 5200 
Q 3800 4775 3950 4350 
Q 3650 4250 3525 4175 
Q 3350 4600 3150 5000 
Q 3425 5125 3575 5200 
z
" transform="scale(0.015625)"/>
        <path id="SimHei-672c" d="M 2950 3925 
L 2950 4425 
Q 2950 4825 2925 5175 
L 3475 5175 
Q 3450 4900 3450 4450 
L 3450 3925 
L 4850 3925 
Q 5275 3925 5850 3950 
L 5850 3475 
Q 5300 3500 4875 3500 
L 3850 3500 
Q 4200 2350 4862 1687 
Q 5525 1025 6075 800 
Q 5850 625 5650 325 
Q 4800 900 4262 1637 
Q 3725 2375 3450 3350 
L 3450 1000 
L 3775 1000 
Q 4175 1000 4600 1025 
L 4600 550 
Q 4175 575 3750 575 
L 3450 575 
Q 3450 0 3475 -600 
L 2925 -600 
Q 2950 0 2950 575 
L 2625 575 
Q 2225 575 1825 550 
L 1825 1025 
Q 2225 1000 2625 1000 
L 2950 1000 
L 2950 3300 
Q 2550 2275 2062 1575 
Q 1575 875 750 175 
Q 550 450 275 575 
Q 1100 1075 1650 1825 
Q 2200 2575 2525 3500 
L 1425 3500 
Q 1025 3500 575 3475 
L 575 3950 
Q 1025 3925 1400 3925 
L 2950 3925 
z
" transform="scale(0.015625)"/>
       </defs>
       <use xlink:href="#SimHei-5c11"/>
       <use xlink:href="#SimHei-6837" x="100"/>
       <use xlink:href="#SimHei-672c" x="200"/>
       <use xlink:href="#SimHei-63d0" x="300"/>
       <use xlink:href="#SimHei-793a" x="400"/>
      </g>
     </g>
    </g>
    <g id="xtick_3">
     <g id="line2d_3">
      <g>
       <use xlink:href="#m4824376185" x="468.502266" y="477.09875" style="stroke: #000000; stroke-width: 0.8"/>
      </g>
     </g>
     <g id="text_3">
      <!-- 思维链 -->
      <g transform="translate(453.502266 492.028437) scale(0.1 -0.1)">
       <defs>
        <path id="SimHei-601d" d="M 5450 4950 
Q 5425 4225 5425 3525 
Q 5425 2825 5450 2125 
L 1075 2125 
Q 1100 2850 1100 3550 
Q 1100 4250 1075 4950 
L 5450 4950 
z
M 2450 1500 
Q 2425 1200 2425 900 
L 2425 300 
Q 2400 -50 2800 -25 
L 4075 -25 
Q 4250 -25 4375 62 
Q 4500 150 4575 725 
Q 4825 500 5125 425 
Q 4950 -150 4712 -300 
Q 4475 -450 4175 -450 
L 2425 -450 
Q 1975 -450 1950 25 
L 1950 900 
Q 1950 1175 1925 1500 
L 2450 1500 
z
M 4950 2550 
L 4950 3325 
L 3500 3325 
L 3500 2550 
L 4950 2550 
z
M 3025 2550 
L 3025 3325 
L 1600 3325 
L 1600 2550 
L 3025 2550 
z
M 4950 3775 
L 4950 4525 
L 3500 4525 
L 3500 3775 
L 4950 3775 
z
M 3025 3775 
L 3025 4525 
L 1600 4525 
L 1600 3775 
L 3025 3775 
z
M 1525 1525 
Q 1175 800 750 -50 
Q 475 100 250 200 
Q 625 750 1000 1750 
Q 1225 1550 1525 1525 
z
M 5200 1725 
Q 5750 1100 6150 550 
Q 5925 400 5725 200 
Q 5350 800 4800 1425 
Q 4950 1500 5200 1725 
z
M 3400 1875 
Q 3675 1475 4000 975 
Q 3675 800 3525 675 
Q 3250 1250 2975 1625 
Q 3200 1725 3400 1875 
z
" transform="scale(0.015625)"/>
        <path id="SimHei-7ef4" d="M 3700 5075 
Q 3575 4900 3475 4637 
Q 3375 4375 3300 4150 
L 4900 4150 
Q 5400 4150 5800 4175 
L 5800 3725 
Q 5375 3750 4900 3750 
L 4650 3750 
L 4650 2900 
Q 5250 2900 5625 2925 
L 5625 2475 
Q 5250 2500 4650 2500 
L 4650 1600 
Q 5275 1600 5650 1625 
L 5650 1200 
Q 5275 1225 4650 1225 
L 4650 325 
L 5050 325 
Q 5550 325 6050 350 
L 6050 -75 
Q 5550 -50 5050 -50 
L 3250 -50 
L 3250 -625 
L 2775 -625 
Q 2800 -150 2800 650 
L 2800 3075 
Q 2650 2700 2475 2375 
Q 2225 2550 2050 2650 
Q 2275 2975 2450 3312 
Q 2625 3650 2837 4250 
Q 3050 4850 3100 5250 
Q 3375 5150 3700 5075 
z
M 1750 5000 
Q 1525 4775 1300 4225 
Q 1075 3675 825 3150 
Q 1175 3200 1525 3225 
Q 1775 3775 1825 4100 
L 2375 3900 
Q 2225 3725 1950 3200 
Q 1675 2675 1125 1575 
L 2250 1725 
Q 2150 1425 2125 1250 
Q 1800 1250 1387 1187 
Q 975 1125 575 1000 
Q 475 1300 425 1525 
Q 650 1625 875 1987 
Q 1100 2350 1325 2800 
Q 1050 2775 812 2737 
Q 575 2700 400 2625 
Q 325 2825 200 3125 
Q 425 3275 687 3875 
Q 950 4475 1150 5175 
Q 1425 5075 1750 5000 
z
M 2475 650 
Q 2450 400 2450 200 
Q 2000 125 1450 12 
Q 900 -100 450 -275 
Q 350 0 250 300 
Q 750 350 1187 412 
Q 1625 475 2475 650 
z
M 4200 1600 
L 4200 2500 
L 3250 2500 
L 3250 1600 
L 4200 1600 
z
M 4200 325 
L 4200 1225 
L 3250 1225 
L 3250 325 
L 4200 325 
z
M 4200 2900 
L 4200 3750 
L 3250 3750 
L 3250 2900 
L 4200 2900 
z
M 4500 5225 
Q 4600 5075 4900 4475 
Q 4700 4400 4475 4275 
Q 4350 4575 4100 4975 
L 4500 5225 
z
" transform="scale(0.015625)"/>
        <path id="SimHei-94fe" d="M 4125 4400 
Q 4275 4675 4375 5250 
L 4975 5050 
Q 4825 4825 4625 4400 
L 5325 4400 
Q 5700 4400 6075 4425 
L 6075 4000 
Q 5700 4025 5325 4025 
L 4525 4025 
Q 4175 3200 4000 2725 
L 4600 2725 
Q 4600 3025 4575 3400 
L 5075 3400 
Q 5050 2900 5050 2725 
L 5300 2725 
Q 5600 2725 5950 2750 
L 5950 2325 
Q 5600 2350 5325 2350 
L 5050 2350 
L 5050 1525 
L 5350 1525 
Q 5700 1525 6025 1550 
L 6025 1125 
Q 5725 1150 5350 1150 
L 5050 1150 
Q 5050 775 5075 200 
L 4575 200 
Q 4600 775 4600 1150 
L 4200 1150 
Q 3850 1150 3500 1125 
L 3500 1550 
Q 3850 1525 4200 1525 
L 4600 1525 
L 4600 2350 
L 4225 2350 
Q 3750 2350 3550 2250 
Q 3475 2475 3375 2725 
Q 3575 2825 3750 3225 
Q 3925 3625 4050 4025 
Q 3875 4025 3475 4000 
L 3475 4425 
Q 3800 4400 4125 4400 
z
M 1700 3175 
Q 1875 3175 2075 3200 
L 2075 2750 
Q 1675 2775 1525 2775 
L 1525 2075 
Q 1825 2075 2175 2100 
L 2175 1625 
Q 1825 1675 1525 1675 
L 1525 450 
Q 2025 850 2200 1050 
Q 2250 825 2400 600 
Q 2150 450 1850 187 
Q 1550 -75 1225 -400 
Q 1075 -225 875 -50 
Q 1050 125 1100 575 
L 1100 1675 
Q 775 1675 375 1650 
L 375 2100 
Q 775 2075 1100 2075 
L 1100 2775 
Q 950 2775 725 2750 
L 725 3150 
L 525 2900 
Q 400 3075 200 3275 
Q 575 3650 787 4125 
Q 1000 4600 1125 5150 
Q 1525 4975 1750 4925 
Q 1575 4775 1487 4575 
Q 1400 4375 1300 4200 
Q 1725 4200 2200 4225 
L 2200 3775 
Q 1675 3800 1150 3800 
Q 1000 3550 775 3225 
Q 950 3225 1125 3175 
L 1700 3175 
z
M 2325 2975 
Q 2550 2950 2750 2950 
L 3225 2950 
Q 3175 2550 3175 2250 
L 3175 550 
Q 3375 350 3762 225 
Q 4150 100 4600 62 
Q 5050 25 6200 125 
Q 6025 -150 5975 -450 
Q 5150 -450 4662 -400 
Q 4175 -350 3900 -275 
Q 3625 -200 3275 37 
Q 2925 275 2737 75 
Q 2550 -125 2350 -350 
Q 2175 -75 2000 100 
Q 2500 425 2750 550 
L 2750 2550 
L 2650 2550 
Q 2525 2550 2325 2500 
L 2325 2975 
z
M 2875 4850 
Q 3075 4425 3225 3850 
Q 3000 3775 2775 3650 
Q 2625 4225 2425 4700 
Q 2600 4775 2875 4850 
z
" transform="scale(0.015625)"/>
       </defs>
       <use xlink:href="#SimHei-601d"/>
       <use xlink:href="#SimHei-7ef4" x="100"/>
       <use xlink:href="#SimHei-94fe" x="200"/>
      </g>
     </g>
    </g>
   </g>
   <g id="matplotlib.axis_2">
    <g id="ytick_1">
     <g id="line2d_4">
      <defs>
       <path id="m7013e5cd5d" d="M 0 0 
L -3.5 0 
" style="stroke: #000000; stroke-width: 0.8"/>
      </defs>
      <g>
       <use xlink:href="#m7013e5cd5d" x="49.47875" y="477.09875" style="stroke: #000000; stroke-width: 0.8"/>
      </g>
     </g>
     <g id="text_4">
      <!-- 0 -->
      <g transform="translate(37.47875 480.53625) scale(0.1 -0.1)">
       <defs>
        <path id="SimHei-30" d="M 225 2537 
Q 250 3200 412 3587 
Q 575 3975 875 4225 
Q 1175 4475 1612 4475 
Q 2050 4475 2375 4112 
Q 2700 3750 2800 3200 
Q 2900 2650 2862 1937 
Q 2825 1225 2612 775 
Q 2400 325 1975 150 
Q 1550 -25 1125 187 
Q 700 400 525 750 
Q 350 1100 275 1487 
Q 200 1875 225 2537 
z
M 750 2687 
Q 675 2000 800 1462 
Q 925 925 1212 700 
Q 1500 475 1800 612 
Q 2100 750 2237 1162 
Q 2375 1575 2375 2062 
Q 2375 2550 2337 2950 
Q 2300 3350 2112 3675 
Q 1925 4000 1612 4012 
Q 1300 4025 1062 3700 
Q 825 3375 750 2687 
z
" transform="scale(0.015625)"/>
       </defs>
       <use xlink:href="#SimHei-30"/>
      </g>
     </g>
    </g>
    <g id="ytick_2">
     <g id="line2d_5">
      <g>
       <use xlink:href="#m7013e5cd5d" x="49.47875" y="388.715692" style="stroke: #000000; stroke-width: 0.8"/>
      </g>
     </g>
     <g id="text_5">
      <!-- 20 -->
      <g transform="translate(32.47875 392.153192) scale(0.1 -0.1)">
       <defs>
        <path id="SimHei-32" d="M 300 250 
Q 325 625 650 925 
Q 975 1225 1475 1862 
Q 1975 2500 2125 2850 
Q 2275 3200 2237 3450 
Q 2200 3700 2000 3862 
Q 1800 4025 1537 4000 
Q 1275 3975 1037 3800 
Q 800 3625 675 3275 
L 200 3350 
Q 400 3925 712 4187 
Q 1025 4450 1450 4475 
Q 1700 4500 1900 4462 
Q 2100 4425 2312 4287 
Q 2525 4150 2662 3875 
Q 2800 3600 2762 3212 
Q 2725 2825 2375 2287 
Q 2025 1750 1025 600 
L 2825 600 
L 2825 150 
L 300 150 
L 300 250 
z
" transform="scale(0.015625)"/>
       </defs>
       <use xlink:href="#SimHei-32"/>
       <use xlink:href="#SimHei-30" x="50"/>
      </g>
     </g>
    </g>
    <g id="ytick_3">
     <g id="line2d_6">
      <g>
       <use xlink:href="#m7013e5cd5d" x="49.47875" y="300.332634" style="stroke: #000000; stroke-width: 0.8"/>
      </g>
     </g>
     <g id="text_6">
      <!-- 40 -->
      <g transform="translate(32.47875 303.770134) scale(0.1 -0.1)">
       <defs>
        <path id="SimHei-34" d="M 2000 1100 
L 75 1100 
L 75 1525 
L 2100 4450 
L 2475 4450 
L 2475 1525 
L 3075 1525 
L 3075 1100 
L 2475 1100 
L 2475 150 
L 2000 150 
L 2000 1100 
z
M 2000 1525 
L 2000 3500 
L 600 1525 
L 2000 1525 
z
" transform="scale(0.015625)"/>
       </defs>
       <use xlink:href="#SimHei-34"/>
       <use xlink:href="#SimHei-30" x="50"/>
      </g>
     </g>
    </g>
    <g id="ytick_4">
     <g id="line2d_7">
      <g>
       <use xlink:href="#m7013e5cd5d" x="49.47875" y="211.949576" style="stroke: #000000; stroke-width: 0.8"/>
      </g>
     </g>
     <g id="text_7">
      <!-- 60 -->
      <g transform="translate(32.47875 215.387076) scale(0.1 -0.1)">
       <defs>
        <path id="SimHei-36" d="M 250 1612 
Q 275 1975 387 2225 
Q 500 2475 725 2850 
L 1750 4450 
L 2325 4450 
L 1275 2800 
Q 1950 2975 2350 2750 
Q 2750 2525 2887 2237 
Q 3025 1950 3037 1612 
Q 3050 1275 2937 950 
Q 2825 625 2537 362 
Q 2250 100 1737 75 
Q 1225 50 862 262 
Q 500 475 362 862 
Q 225 1250 250 1612 
z
M 1025 787 
Q 1250 550 1625 525 
Q 2000 500 2250 775 
Q 2500 1050 2500 1575 
Q 2500 2100 2187 2300 
Q 1875 2500 1487 2450 
Q 1100 2400 925 2075 
Q 750 1750 775 1387 
Q 800 1025 1025 787 
z
" transform="scale(0.015625)"/>
       </defs>
       <use xlink:href="#SimHei-36"/>
       <use xlink:href="#SimHei-30" x="50"/>
      </g>
     </g>
    </g>
    <g id="ytick_5">
     <g id="line2d_8">
      <g>
       <use xlink:href="#m7013e5cd5d" x="49.47875" y="123.566518" style="stroke: #000000; stroke-width: 0.8"/>
      </g>
     </g>
     <g id="text_8">
      <!-- 80 -->
      <g transform="translate(32.47875 127.004018) scale(0.1 -0.1)">
       <defs>
        <path id="SimHei-38" d="M 175 1375 
Q 175 1675 325 1962 
Q 475 2250 825 2425 
Q 525 2600 425 2812 
Q 325 3025 312 3300 
Q 300 3575 387 3775 
Q 475 3975 650 4150 
Q 825 4325 1037 4387 
Q 1250 4450 1500 4450 
Q 1750 4450 1950 4400 
Q 2150 4350 2375 4187 
Q 2600 4025 2700 3725 
Q 2800 3425 2687 3025 
Q 2575 2625 2100 2400 
Q 2525 2275 2700 2012 
Q 2875 1750 2875 1375 
Q 2875 1000 2762 775 
Q 2650 550 2512 400 
Q 2375 250 2137 162 
Q 1900 75 1537 75 
Q 1175 75 912 162 
Q 650 250 475 425 
Q 300 600 237 837 
Q 175 1075 175 1375 
z
M 687 1400 
Q 675 1100 787 875 
Q 900 650 1200 587 
Q 1500 525 1825 600 
Q 2150 675 2275 950 
Q 2400 1225 2362 1500 
Q 2325 1775 2050 1962 
Q 1775 2150 1450 2125 
Q 1125 2100 912 1900 
Q 700 1700 687 1400 
z
M 775 3350 
Q 775 3100 950 2875 
Q 1125 2650 1500 2650 
Q 1875 2650 2062 2875 
Q 2250 3100 2237 3412 
Q 2225 3725 2012 3875 
Q 1800 4025 1437 4000 
Q 1075 3975 925 3787 
Q 775 3600 775 3350 
z
" transform="scale(0.015625)"/>
       </defs>
       <use xlink:href="#SimHei-38"/>
       <use xlink:href="#SimHei-30" x="50"/>
      </g>
     </g>
    </g>
    <g id="text_9">
     <!-- 运行时间 (秒) -->
     <g transform="translate(20.97875 298.810625) rotate(-90) scale(0.12 -0.12)">
      <defs>
       <path id="SimHei-8fd0" d="M 5050 1075 
Q 3750 925 3275 862 
Q 2800 800 2625 700 
L 2375 1225 
Q 2625 1325 2900 1775 
Q 3175 2225 3325 2925 
Q 2475 2925 2025 2900 
L 2025 3375 
Q 2500 3350 3950 3350 
Q 5400 3350 5825 3375 
L 5825 2900 
Q 5400 2925 3875 2925 
Q 3800 2650 3587 2200 
Q 3375 1750 3075 1275 
Q 4000 1350 4850 1425 
Q 4675 1750 4350 2150 
Q 4550 2250 4725 2425 
Q 5200 1825 5750 925 
Q 5525 800 5300 650 
Q 5175 875 5050 1075 
z
M 325 0 
Q 1100 500 1350 600 
L 1350 2600 
Q 900 2600 475 2575 
L 475 3050 
Q 950 3025 1400 3025 
L 1825 3025 
Q 1800 2550 1800 2275 
L 1800 700 
Q 2325 50 3787 37 
Q 5250 25 6050 150 
Q 5875 -175 5825 -450 
L 4200 -450 
Q 3550 -450 3112 -387 
Q 2675 -325 2375 -212 
Q 2075 -100 1825 112 
Q 1575 325 1237 25 
Q 900 -275 725 -475 
Q 550 -275 325 0 
z
M 5400 4275 
Q 4925 4300 3975 4300 
Q 3050 4300 2525 4275 
L 2525 4750 
Q 2975 4725 3950 4725 
Q 4925 4725 5400 4750 
L 5400 4275 
z
M 1475 3775 
Q 1175 4275 725 4725 
L 1075 5025 
Q 1725 4325 1875 4075 
L 1475 3775 
z
" transform="scale(0.015625)"/>
       <path id="SimHei-884c" d="M 5300 3100 
Q 5775 3100 6175 3125 
L 6175 2625 
Q 5775 2650 5325 2650 
L 4975 2650 
L 4975 -75 
Q 5000 -375 4787 -487 
Q 4575 -600 3950 -675 
Q 3900 -375 3675 -75 
Q 4100 -125 4275 -112 
Q 4450 -100 4475 150 
L 4475 2650 
L 3475 2650 
Q 3000 2650 2575 2625 
L 2575 3125 
Q 3025 3100 3475 3100 
L 5300 3100 
z
M 2300 3400 
Q 2075 3275 1962 3075 
Q 1850 2875 1650 2575 
L 1650 325 
Q 1650 0 1675 -675 
L 1150 -675 
Q 1175 75 1175 450 
L 1175 2050 
Q 950 1675 575 1300 
Q 400 1550 250 1725 
Q 825 2275 1150 2775 
Q 1475 3275 1725 3725 
Q 1975 3575 2300 3400 
z
M 4875 4800 
Q 5300 4800 5750 4825 
L 5750 4350 
Q 5300 4375 4825 4375 
L 3900 4375 
Q 3350 4375 2950 4350 
L 2950 4825 
Q 3350 4800 3900 4800 
L 4875 4800 
z
M 2075 4925 
Q 1875 4900 1550 4387 
Q 1225 3875 650 3250 
Q 500 3450 325 3625 
Q 725 4025 1050 4487 
Q 1375 4950 1525 5300 
Q 1775 5150 2075 4925 
z
" transform="scale(0.015625)"/>
       <path id="SimHei-65f6" d="M 2525 4575 
Q 2500 3675 2500 2400 
Q 2500 1125 2525 400 
L 2000 400 
L 2000 875 
L 1000 875 
L 1000 50 
L 475 50 
Q 500 1200 500 2350 
Q 500 3525 475 4575 
L 2525 4575 
z
M 4875 3825 
Q 4875 4575 4850 5225 
L 5400 5225 
Q 5375 4575 5375 3825 
Q 5750 3825 6175 3850 
L 6175 3375 
Q 5750 3400 5375 3400 
L 5375 50 
Q 5375 -325 5075 -425 
Q 4775 -525 4300 -575 
Q 4300 -275 4025 0 
Q 4500 -50 4687 -25 
Q 4875 0 4875 300 
L 4875 3400 
Q 3625 3400 2775 3375 
L 2775 3850 
Q 3575 3825 4875 3825 
z
M 2000 1300 
L 2000 2550 
L 1000 2550 
L 1000 1300 
L 2000 1300 
z
M 2000 2975 
L 2000 4150 
L 1000 4150 
L 1000 2975 
L 2000 2975 
z
M 3550 2725 
Q 3875 2200 4175 1600 
Q 3925 1525 3650 1375 
Q 3450 1975 3075 2500 
Q 3300 2600 3550 2725 
z
" transform="scale(0.015625)"/>
       <path id="SimHei-95f4" d="M 4450 3550 
Q 4425 3075 4425 2725 
L 4425 1400 
Q 4425 1075 4450 625 
L 1925 625 
Q 1950 1075 1950 1425 
L 1950 2725 
Q 1950 3075 1925 3550 
L 4450 3550 
z
M 5800 4875 
Q 5775 4400 5775 3925 
L 5775 250 
Q 5800 -325 5462 -450 
Q 5125 -575 4725 -625 
Q 4700 -325 4525 -25 
Q 5000 -50 5137 25 
Q 5275 100 5275 350 
L 5275 4450 
L 3775 4450 
Q 3175 4450 2650 4425 
L 2650 4900 
Q 3175 4875 3775 4875 
L 5800 4875 
z
M 550 -525 
Q 600 -25 600 525 
L 600 3150 
Q 600 3675 550 4025 
L 1125 4025 
Q 1100 3650 1100 3300 
L 1100 500 
Q 1100 0 1125 -525 
L 550 -525 
z
M 3950 1025 
L 3950 1950 
L 2425 1950 
L 2425 1025 
L 3950 1025 
z
M 3950 2350 
L 3950 3150 
L 2425 3150 
L 2425 2350 
L 3950 2350 
z
M 1525 5300 
Q 1750 5000 2225 4350 
Q 1950 4225 1700 4075 
Q 1450 4575 1075 5025 
Q 1350 5225 1525 5300 
z
" transform="scale(0.015625)"/>
       <path id="SimHei-20" transform="scale(0.015625)"/>
       <path id="SimHei-28" d="M 2975 -200 
L 2700 -475 
Q 2075 125 1762 775 
Q 1450 1425 1450 2250 
Q 1450 3075 1762 3725 
Q 2075 4375 2700 5000 
L 2975 4725 
Q 2400 4175 2112 3587 
Q 1825 3000 1825 2250 
Q 1825 1500 2112 912 
Q 2400 325 2975 -200 
z
" transform="scale(0.015625)"/>
       <path id="SimHei-79d2" d="M 2725 4550 
Q 2475 4525 2300 4487 
Q 2125 4450 1925 4400 
L 1925 3325 
Q 2250 3325 2700 3350 
L 2700 2875 
Q 2250 2900 1925 2900 
L 1925 175 
Q 1925 -150 1950 -650 
L 1400 -650 
Q 1450 -150 1450 175 
L 1450 1725 
Q 1300 1375 1087 1000 
Q 875 625 625 375 
Q 450 625 225 850 
Q 600 1150 900 1675 
Q 1200 2200 1375 2900 
L 1275 2900 
Q 850 2900 325 2875 
L 325 3350 
Q 850 3325 1275 3325 
L 1475 3325 
L 1475 4300 
Q 1025 4175 675 4100 
Q 575 4300 425 4500 
Q 950 4575 1412 4687 
Q 1875 4800 2400 5050 
Q 2525 4800 2725 4550 
z
M 5950 2100 
Q 5700 1875 5512 1500 
Q 5325 1125 4987 725 
Q 4650 325 4125 -12 
Q 3600 -350 2625 -625 
Q 2550 -325 2350 -50 
Q 2975 0 3462 187 
Q 3950 375 4300 700 
Q 4650 1025 4900 1450 
Q 5150 1875 5300 2375 
Q 5475 2300 5950 2100 
z
M 4575 5275 
Q 4550 4875 4550 4400 
L 4550 2325 
Q 4550 1925 4575 1425 
L 4075 1425 
Q 4100 1950 4100 2325 
L 4100 4400 
Q 4100 4825 4075 5275 
L 4575 5275 
z
M 3800 3925 
Q 3675 3625 3550 2975 
Q 3425 2325 3325 1975 
Q 3000 2050 2775 2125 
Q 2900 2350 3025 2900 
Q 3150 3450 3225 4050 
Q 3500 3975 3800 3925 
z
M 5275 4175 
Q 5450 3925 5700 3600 
Q 5950 3275 6200 2900 
Q 5975 2775 5725 2625 
Q 5575 2900 5362 3212 
Q 5150 3525 4875 3825 
Q 5075 3975 5275 4175 
z
M 2475 2400 
Q 2575 2225 2700 2012 
Q 2825 1800 2975 1500 
Q 2775 1400 2525 1250 
Q 2425 1500 2300 1737 
Q 2175 1975 2050 2150 
Q 2250 2250 2475 2400 
z
" transform="scale(0.015625)"/>
       <path id="SimHei-29" d="M 1675 2250 
Q 1675 1425 1362 775 
Q 1050 125 425 -475 
L 150 -200 
Q 725 325 1012 912 
Q 1300 1500 1300 2250 
Q 1300 3000 1012 3587 
Q 725 4175 150 4725 
L 425 5000 
Q 1050 4375 1362 3725 
Q 1675 3075 1675 2250 
z
" transform="scale(0.015625)"/>
      </defs>
      <use xlink:href="#SimHei-8fd0"/>
      <use xlink:href="#SimHei-884c" x="100"/>
      <use xlink:href="#SimHei-65f6" x="200"/>
      <use xlink:href="#SimHei-95f4" x="300"/>
      <use xlink:href="#SimHei-20" x="400"/>
      <use xlink:href="#SimHei-28" x="450"/>
      <use xlink:href="#SimHei-79d2" x="500"/>
      <use xlink:href="#SimHei-29" x="600"/>
     </g>
    </g>
   </g>
   <g id="LineCollection_1">
    <path d="M 146.176484 398.158932 
L 146.176484 87.946802 
" clip-path="url(#pc0c8bcbf1d)" style="fill: none; stroke: #000000; stroke-width: 1.5"/>
    <path d="M 307.339375 389.705091 
L 307.339375 113.273231 
" clip-path="url(#pc0c8bcbf1d)" style="fill: none; stroke: #000000; stroke-width: 1.5"/>
    <path d="M 468.502266 374.478896 
L 468.502266 88.891931 
" clip-path="url(#pc0c8bcbf1d)" style="fill: none; stroke: #000000; stroke-width: 1.5"/>
   </g>
   <g id="line2d_9">
    <defs>
     <path id="m6ccdbbe65e" d="M 5 0 
L -5 -0 
" style="stroke: #000000"/>
    </defs>
    <g clip-path="url(#pc0c8bcbf1d)">
     <use xlink:href="#m6ccdbbe65e" x="146.176484" y="398.158932" style="stroke: #000000"/>
     <use xlink:href="#m6ccdbbe65e" x="307.339375" y="389.705091" style="stroke: #000000"/>
     <use xlink:href="#m6ccdbbe65e" x="468.502266" y="374.478896" style="stroke: #000000"/>
    </g>
   </g>
   <g id="line2d_10">
    <g clip-path="url(#pc0c8bcbf1d)">
     <use xlink:href="#m6ccdbbe65e" x="146.176484" y="87.946802" style="stroke: #000000"/>
     <use xlink:href="#m6ccdbbe65e" x="307.339375" y="113.273231" style="stroke: #000000"/>
     <use xlink:href="#m6ccdbbe65e" x="468.502266" y="88.891931" style="stroke: #000000"/>
    </g>
   </g>
   <g id="LineCollection_2">
    <path d="M 49.47875 341.668193 
L 146.176484 341.668193 
" clip-path="url(#pc0c8bcbf1d)" style="fill: none; stroke-dasharray: 5.55,2.4; stroke-dashoffset: 0; stroke: #0000ff; stroke-opacity: 0.8; stroke-width: 1.5"/>
   </g>
   <g id="LineCollection_3">
    <path d="M 49.47875 318.398451 
L 307.339375 318.398451 
" clip-path="url(#pc0c8bcbf1d)" style="fill: none; stroke-dasharray: 5.55,2.4; stroke-dashoffset: 0; stroke: #008000; stroke-opacity: 0.8; stroke-width: 1.5"/>
   </g>
   <g id="LineCollection_4">
    <path d="M 49.47875 296.243891 
L 468.502266 296.243891 
" clip-path="url(#pc0c8bcbf1d)" style="fill: none; stroke-dasharray: 5.55,2.4; stroke-dashoffset: 0; stroke: #ff0000; stroke-opacity: 0.8; stroke-width: 1.5"/>
   </g>
   <g id="patch_6">
    <path d="M 49.47875 477.09875 
L 49.47875 42.5225 
" style="fill: none; stroke: #000000; stroke-width: 0.8; stroke-linejoin: miter; stroke-linecap: square"/>
   </g>
   <g id="patch_7">
    <path d="M 565.2 477.09875 
L 565.2 42.5225 
" style="fill: none; stroke: #000000; stroke-width: 0.8; stroke-linejoin: miter; stroke-linecap: square"/>
   </g>
   <g id="patch_8">
    <path d="M 49.47875 477.09875 
L 565.2 477.09875 
" style="fill: none; stroke: #000000; stroke-width: 0.8; stroke-linejoin: miter; stroke-linecap: square"/>
   </g>
   <g id="patch_9">
    <path d="M 49.47875 42.5225 
L 565.2 42.5225 
" style="fill: none; stroke: #000000; stroke-width: 0.8; stroke-linejoin: miter; stroke-linecap: square"/>
   </g>
   <g id="text_10">
    <!-- 范围: [17.86, 88.06] -->
    <g transform="translate(105.885762 82.026465) scale(0.09 -0.09)">
     <defs>
      <path id="SimHei-8303" d="M 4200 875 
Q 4150 1150 3925 1400 
Q 4450 1400 4612 1450 
Q 4775 1500 4800 1725 
L 4850 2700 
L 3400 2700 
L 3400 325 
Q 3450 -25 3825 0 
L 5150 0 
Q 5325 0 5412 100 
Q 5500 200 5550 625 
Q 5825 450 6075 375 
Q 5925 -150 5775 -275 
Q 5625 -400 5300 -400 
L 3475 -400 
Q 2900 -400 2900 225 
L 2900 2000 
Q 2900 2625 2875 3100 
L 5375 3100 
Q 5350 2750 5325 2175 
Q 5300 1600 5250 1375 
Q 5200 1150 4962 1050 
Q 4725 950 4200 875 
z
M 1875 4400 
Q 1875 4700 1850 5125 
L 2400 5125 
Q 2375 4775 2375 4400 
L 3975 4400 
Q 3975 4825 3925 5125 
L 4500 5125 
Q 4475 4825 4475 4400 
L 5375 4400 
Q 5650 4400 6050 4425 
L 6050 3975 
Q 5650 4000 5375 4000 
L 4475 4000 
Q 4475 3675 4500 3350 
L 3975 3350 
L 3975 4000 
L 2375 4000 
L 2375 3325 
L 1850 3325 
Q 1875 3650 1875 4000 
L 1025 4000 
Q 550 4000 350 3975 
L 350 4425 
Q 775 4400 1025 4400 
L 1875 4400 
z
M 2250 900 
Q 2000 600 1562 100 
Q 1125 -400 925 -625 
Q 800 -450 525 -250 
Q 775 -75 1237 425 
Q 1700 925 1925 1250 
Q 2075 1075 2250 900 
z
M 725 2275 
Q 1325 1925 1800 1600 
Q 1550 1425 1425 1200 
Q 975 1575 375 1900 
Q 550 2075 725 2275 
z
M 1300 3450 
Q 1750 3150 2250 2700 
Q 2050 2575 1850 2350 
Q 1400 2800 925 3100 
Q 1125 3275 1300 3450 
z
" transform="scale(0.015625)"/>
      <path id="SimHei-56f4" d="M 5775 4950 
Q 5750 4400 5750 3850 
L 5750 550 
Q 5750 50 5775 -550 
L 5275 -550 
L 5275 -150 
L 1150 -150 
L 1150 -625 
L 650 -625 
Q 675 100 675 675 
L 675 3800 
Q 675 4350 650 4950 
L 5775 4950 
z
M 5275 225 
L 5275 4575 
L 1150 4575 
L 1150 225 
L 5275 225 
z
M 2850 3875 
Q 2850 4050 2825 4400 
L 3300 4400 
Q 3275 4075 3275 3875 
L 4050 3875 
Q 4650 3875 4875 3900 
L 4875 3500 
Q 4550 3525 3950 3525 
L 3275 3525 
L 3275 3050 
L 3775 3050 
Q 4275 3050 4625 3075 
L 4625 2675 
Q 4275 2700 3775 2700 
L 3275 2700 
L 3275 2175 
L 4875 2175 
Q 4775 1225 4725 1075 
Q 4675 925 4475 837 
Q 4275 750 3825 700 
Q 3800 925 3650 1175 
Q 4125 1150 4250 1225 
Q 4375 1300 4375 1800 
L 3275 1800 
L 3275 1125 
Q 3275 825 3300 400 
L 2825 400 
Q 2850 925 2850 1225 
L 2850 1800 
L 2200 1800 
Q 1725 1800 1450 1775 
L 1450 2200 
Q 1800 2175 2200 2175 
L 2850 2175 
L 2850 2700 
Q 2100 2700 1775 2675 
L 1775 3075 
Q 2225 3050 2850 3050 
L 2850 3525 
Q 2050 3525 1625 3500 
L 1625 3900 
Q 2050 3875 2850 3875 
z
" transform="scale(0.015625)"/>
      <path id="SimHei-3a" d="M 1825 2425 
L 1250 2425 
L 1250 2975 
L 1825 2975 
L 1825 2425 
z
M 1825 125 
L 1250 125 
L 1250 675 
L 1825 675 
L 1825 125 
z
" transform="scale(0.015625)"/>
      <path id="SimHei-5b" d="M 2825 -525 
L 1250 -525 
L 1250 5050 
L 2825 5050 
L 2825 4650 
L 1675 4650 
L 1675 -125 
L 2825 -125 
L 2825 -525 
z
" transform="scale(0.015625)"/>
      <path id="SimHei-31" d="M 1400 3600 
Q 1075 3275 575 2975 
L 575 3450 
Q 1200 3875 1600 4450 
L 1900 4450 
L 1900 150 
L 1400 150 
L 1400 3600 
z
" transform="scale(0.015625)"/>
      <path id="SimHei-37" d="M 850 150 
Q 1300 2050 2425 3925 
L 275 3925 
L 275 4375 
L 2950 4375 
L 2950 3950 
Q 1775 2050 1400 150 
L 850 150 
z
" transform="scale(0.015625)"/>
      <path id="SimHei-2e" d="M 1075 125 
L 500 125 
L 500 675 
L 1075 675 
L 1075 125 
z
" transform="scale(0.015625)"/>
      <path id="SimHei-2c" d="M 1100 125 
L 775 -550 
L 525 -550 
L 775 125 
L 525 125 
L 525 675 
L 1100 675 
L 1100 125 
z
" transform="scale(0.015625)"/>
      <path id="SimHei-5d" d="M 1875 -525 
L 300 -525 
L 300 -125 
L 1450 -125 
L 1450 4650 
L 300 4650 
L 300 5050 
L 1875 5050 
L 1875 -525 
z
" transform="scale(0.015625)"/>
     </defs>
     <use xlink:href="#SimHei-8303"/>
     <use xlink:href="#SimHei-56f4" x="100"/>
     <use xlink:href="#SimHei-3a" x="200"/>
     <use xlink:href="#SimHei-20" x="250"/>
     <use xlink:href="#SimHei-5b" x="300"/>
     <use xlink:href="#SimHei-31" x="350"/>
     <use xlink:href="#SimHei-37" x="400"/>
     <use xlink:href="#SimHei-2e" x="450"/>
     <use xlink:href="#SimHei-38" x="500"/>
     <use xlink:href="#SimHei-36" x="550"/>
     <use xlink:href="#SimHei-2c" x="600"/>
     <use xlink:href="#SimHei-20" x="650"/>
     <use xlink:href="#SimHei-38" x="700"/>
     <use xlink:href="#SimHei-38" x="750"/>
     <use xlink:href="#SimHei-2e" x="800"/>
     <use xlink:href="#SimHei-30" x="850"/>
     <use xlink:href="#SimHei-36" x="900"/>
     <use xlink:href="#SimHei-5d" x="950"/>
    </g>
   </g>
   <g id="text_11">
    <!-- 标准差: 9.99 -->
    <g transform="translate(105.885762 73.258472) scale(0.09 -0.09)">
     <defs>
      <path id="SimHei-6807" d="M 1275 4400 
Q 1275 4800 1250 5175 
L 1750 5175 
Q 1725 4825 1725 4400 
L 1725 3800 
Q 2125 3800 2575 3825 
L 2575 3350 
Q 2125 3375 1725 3375 
L 1725 2525 
Q 1900 2650 2075 2800 
Q 2400 2275 2650 1775 
Q 2375 1650 2175 1500 
Q 2025 2000 1725 2425 
L 1725 475 
Q 1725 -50 1750 -575 
L 1250 -575 
Q 1275 -25 1275 475 
L 1275 2100 
Q 1025 1400 500 750 
Q 350 950 125 1125 
Q 550 1550 812 2187 
Q 1075 2825 1150 3375 
Q 675 3375 325 3325 
L 325 3825 
Q 800 3800 1275 3800 
L 1275 4400 
z
M 5175 3125 
Q 5675 3125 6050 3150 
L 6050 2675 
Q 5675 2700 5275 2700 
L 4500 2700 
L 4500 175 
Q 4500 -225 4275 -350 
Q 4050 -475 3475 -550 
Q 3425 -250 3275 25 
Q 3775 25 3900 62 
Q 4025 100 4025 350 
L 4025 2700 
L 3400 2700 
Q 2775 2700 2500 2650 
L 2500 3150 
Q 2825 3125 3400 3125 
L 5175 3125 
z
M 4900 4775 
Q 5425 4775 5750 4800 
L 5750 4300 
Q 5275 4350 4750 4350 
L 3525 4350 
Q 3125 4350 2750 4300 
L 2750 4800 
Q 3100 4775 3525 4775 
L 4900 4775 
z
M 5275 2025 
Q 5825 1175 6200 500 
Q 5925 375 5650 200 
Q 5375 925 4825 1725 
Q 5075 1850 5275 2025 
z
M 3600 1775 
Q 3500 1625 3225 975 
Q 2950 325 2800 50 
Q 2575 175 2300 275 
Q 2625 775 2787 1187 
Q 2950 1600 3050 2000 
Q 3325 1875 3600 1775 
z
" transform="scale(0.015625)"/>
      <path id="SimHei-51c6" d="M 1600 2775 
Q 1900 3050 2275 3787 
Q 2650 4525 2800 5175 
Q 3075 5050 3400 4950 
Q 3250 4775 3000 4100 
L 4825 4100 
Q 5400 4100 5875 4125 
L 5875 3675 
Q 5375 3700 4825 3700 
L 4525 3700 
L 4525 2850 
Q 5250 2850 5700 2875 
L 5700 2425 
Q 5250 2450 4525 2450 
L 4525 1600 
Q 5275 1600 5700 1625 
L 5700 1200 
Q 5275 1225 4525 1225 
L 4525 375 
Q 5575 375 6050 400 
L 6050 -100 
Q 5575 -75 4975 -75 
L 2950 -75 
L 2950 -600 
L 2425 -600 
Q 2450 -150 2450 675 
L 2450 3050 
Q 2300 2775 2075 2400 
Q 1875 2650 1600 2775 
z
M 1675 2050 
Q 1425 1425 1200 850 
Q 975 275 775 -125 
Q 550 50 275 200 
Q 550 650 775 1112 
Q 1000 1575 1225 2300 
Q 1400 2125 1675 2050 
z
M 4025 1600 
L 4025 2450 
L 2950 2450 
L 2950 1600 
L 4025 1600 
z
M 4025 2850 
L 4025 3700 
L 2950 3700 
L 2950 2850 
L 4025 2850 
z
M 4025 375 
L 4025 1225 
L 2950 1225 
L 2950 375 
L 4025 375 
z
M 725 4775 
Q 850 4625 1162 4312 
Q 1475 4000 1750 3700 
Q 1525 3475 1375 3300 
Q 1100 3700 350 4450 
Q 550 4600 725 4775 
z
M 4150 5225 
Q 4600 4800 4800 4500 
Q 4625 4400 4400 4200 
Q 4225 4500 3775 4925 
Q 3925 5000 4150 5225 
z
" transform="scale(0.015625)"/>
      <path id="SimHei-5dee" d="M 4725 4975 
Q 4500 4725 4250 4275 
L 4850 4275 
Q 5450 4275 5825 4300 
L 5825 3850 
Q 5425 3875 4850 3875 
L 3275 3875 
Q 3225 3600 3150 3275 
L 4525 3275 
Q 5075 3275 5525 3300 
L 5525 2850 
Q 5075 2875 4500 2875 
L 3050 2875 
Q 2975 2650 2850 2325 
L 5125 2325 
Q 5675 2325 6025 2350 
L 6025 1900 
Q 5700 1925 5150 1925 
L 2650 1925 
Q 2425 1550 2250 1300 
Q 2650 1275 3100 1275 
L 4525 1275 
Q 4975 1275 5350 1300 
L 5350 850 
Q 4975 875 4575 875 
L 3925 875 
L 3925 -50 
L 5000 -50 
Q 5200 -50 5900 -25 
L 5900 -500 
Q 5275 -475 5025 -475 
L 2100 -475 
Q 1700 -475 1400 -500 
L 1400 -25 
Q 1775 -50 2125 -50 
L 3425 -50 
L 3425 875 
L 3100 875 
Q 2625 875 2175 850 
L 2175 1200 
Q 1925 875 1487 475 
Q 1050 75 625 -250 
Q 425 -25 200 150 
Q 750 475 1262 925 
Q 1775 1375 2100 1925 
L 1325 1925 
Q 750 1925 375 1900 
L 375 2350 
Q 750 2325 1350 2325 
L 2325 2325 
Q 2450 2575 2550 2875 
L 1725 2875 
Q 1375 2875 1000 2850 
L 1000 3300 
Q 1500 3275 1700 3275 
L 2650 3275 
Q 2725 3575 2775 3875 
L 1500 3875 
Q 1100 3875 650 3850 
L 650 4300 
Q 1025 4275 1425 4275 
L 2275 4275 
Q 2075 4675 1850 4950 
Q 2025 5050 2250 5225 
Q 2450 4975 2725 4550 
Q 2525 4450 2325 4275 
L 3750 4275 
Q 4000 4700 4150 5250 
Q 4400 5100 4725 4975 
z
" transform="scale(0.015625)"/>
      <path id="SimHei-39" d="M 800 75 
Q 1350 1000 1700 1750 
Q 1075 1650 662 1912 
Q 250 2175 162 2625 
Q 75 3075 175 3437 
Q 275 3800 487 4037 
Q 700 4275 1000 4375 
Q 1300 4475 1537 4475 
Q 1775 4475 2025 4375 
Q 2275 4275 2475 4075 
Q 2675 3875 2750 3662 
Q 2825 3450 2825 3112 
Q 2825 2775 2575 2250 
Q 2325 1725 1350 75 
L 800 75 
z
M 662 2875 
Q 700 2550 937 2337 
Q 1175 2125 1450 2150 
Q 1725 2175 1887 2300 
Q 2050 2425 2200 2725 
Q 2300 3100 2250 3362 
Q 2200 3625 1987 3800 
Q 1775 3975 1525 3975 
Q 1375 4000 1137 3900 
Q 900 3800 762 3500 
Q 625 3200 662 2875 
z
" transform="scale(0.015625)"/>
     </defs>
     <use xlink:href="#SimHei-6807"/>
     <use xlink:href="#SimHei-51c6" x="100"/>
     <use xlink:href="#SimHei-5dee" x="200"/>
     <use xlink:href="#SimHei-3a" x="300"/>
     <use xlink:href="#SimHei-20" x="350"/>
     <use xlink:href="#SimHei-39" x="400"/>
     <use xlink:href="#SimHei-2e" x="450"/>
     <use xlink:href="#SimHei-39" x="500"/>
     <use xlink:href="#SimHei-39" x="550"/>
    </g>
   </g>
   <g id="text_12">
    <!-- 范围: [19.78, 82.33] -->
    <g transform="translate(267.048652 107.352894) scale(0.09 -0.09)">
     <defs>
      <path id="SimHei-33" d="M 250 1225 
L 700 1300 
Q 800 975 1025 762 
Q 1250 550 1587 562 
Q 1925 575 2125 837 
Q 2325 1100 2300 1437 
Q 2275 1775 2037 1962 
Q 1800 2150 1275 2225 
L 1275 2550 
Q 1800 2600 2037 2825 
Q 2275 3050 2250 3412 
Q 2225 3775 1925 3937 
Q 1625 4100 1287 3975 
Q 950 3850 750 3275 
L 300 3350 
Q 450 3800 712 4100 
Q 975 4400 1425 4450 
Q 1875 4500 2212 4337 
Q 2550 4175 2687 3837 
Q 2825 3500 2725 3100 
Q 2625 2700 2150 2400 
Q 2500 2250 2687 1950 
Q 2875 1650 2812 1162 
Q 2750 675 2375 375 
Q 2000 75 1525 87 
Q 1050 100 700 387 
Q 350 675 250 1225 
z
" transform="scale(0.015625)"/>
     </defs>
     <use xlink:href="#SimHei-8303"/>
     <use xlink:href="#SimHei-56f4" x="100"/>
     <use xlink:href="#SimHei-3a" x="200"/>
     <use xlink:href="#SimHei-20" x="250"/>
     <use xlink:href="#SimHei-5b" x="300"/>
     <use xlink:href="#SimHei-31" x="350"/>
     <use xlink:href="#SimHei-39" x="400"/>
     <use xlink:href="#SimHei-2e" x="450"/>
     <use xlink:href="#SimHei-37" x="500"/>
     <use xlink:href="#SimHei-38" x="550"/>
     <use xlink:href="#SimHei-2c" x="600"/>
     <use xlink:href="#SimHei-20" x="650"/>
     <use xlink:href="#SimHei-38" x="700"/>
     <use xlink:href="#SimHei-32" x="750"/>
     <use xlink:href="#SimHei-2e" x="800"/>
     <use xlink:href="#SimHei-33" x="850"/>
     <use xlink:href="#SimHei-33" x="900"/>
     <use xlink:href="#SimHei-5d" x="950"/>
    </g>
   </g>
   <g id="text_13">
    <!-- 标准差: 11.40 -->
    <g transform="translate(267.048652 98.5849) scale(0.09 -0.09)">
     <use xlink:href="#SimHei-6807"/>
     <use xlink:href="#SimHei-51c6" x="100"/>
     <use xlink:href="#SimHei-5dee" x="200"/>
     <use xlink:href="#SimHei-3a" x="300"/>
     <use xlink:href="#SimHei-20" x="350"/>
     <use xlink:href="#SimHei-31" x="400"/>
     <use xlink:href="#SimHei-31" x="450"/>
     <use xlink:href="#SimHei-2e" x="500"/>
     <use xlink:href="#SimHei-34" x="550"/>
     <use xlink:href="#SimHei-30" x="600"/>
    </g>
   </g>
   <g id="text_14">
    <!-- 范围: [23.22, 87.85] -->
    <g transform="translate(428.211543 82.971594) scale(0.09 -0.09)">
     <defs>
      <path id="SimHei-35" d="M 550 1325 
Q 725 650 1150 575 
Q 1575 500 1837 662 
Q 2100 825 2212 1087 
Q 2325 1350 2312 1675 
Q 2300 2000 2137 2225 
Q 1975 2450 1725 2525 
Q 1475 2600 1162 2525 
Q 850 2450 650 2175 
L 225 2225 
Q 275 2375 700 4375 
L 2675 4375 
L 2675 3925 
L 1075 3925 
Q 950 3250 825 2850 
Q 1200 3025 1525 3012 
Q 1850 3000 2150 2862 
Q 2450 2725 2587 2487 
Q 2725 2250 2787 2012 
Q 2850 1775 2837 1500 
Q 2825 1225 2725 937 
Q 2625 650 2425 462 
Q 2225 275 1937 162 
Q 1650 50 1275 75 
Q 900 100 562 350 
Q 225 600 100 1200 
L 550 1325 
z
" transform="scale(0.015625)"/>
     </defs>
     <use xlink:href="#SimHei-8303"/>
     <use xlink:href="#SimHei-56f4" x="100"/>
     <use xlink:href="#SimHei-3a" x="200"/>
     <use xlink:href="#SimHei-20" x="250"/>
     <use xlink:href="#SimHei-5b" x="300"/>
     <use xlink:href="#SimHei-32" x="350"/>
     <use xlink:href="#SimHei-33" x="400"/>
     <use xlink:href="#SimHei-2e" x="450"/>
     <use xlink:href="#SimHei-32" x="500"/>
     <use xlink:href="#SimHei-32" x="550"/>
     <use xlink:href="#SimHei-2c" x="600"/>
     <use xlink:href="#SimHei-20" x="650"/>
     <use xlink:href="#SimHei-38" x="700"/>
     <use xlink:href="#SimHei-37" x="750"/>
     <use xlink:href="#SimHei-2e" x="800"/>
     <use xlink:href="#SimHei-38" x="850"/>
     <use xlink:href="#SimHei-35" x="900"/>
     <use xlink:href="#SimHei-5d" x="950"/>
    </g>
   </g>
   <g id="text_15">
    <!-- 标准差: 13.37 -->
    <g transform="translate(428.211543 74.203601) scale(0.09 -0.09)">
     <use xlink:href="#SimHei-6807"/>
     <use xlink:href="#SimHei-51c6" x="100"/>
     <use xlink:href="#SimHei-5dee" x="200"/>
     <use xlink:href="#SimHei-3a" x="300"/>
     <use xlink:href="#SimHei-20" x="350"/>
     <use xlink:href="#SimHei-31" x="400"/>
     <use xlink:href="#SimHei-33" x="450"/>
     <use xlink:href="#SimHei-2e" x="500"/>
     <use xlink:href="#SimHei-33" x="550"/>
     <use xlink:href="#SimHei-37" x="600"/>
    </g>
   </g>
   <g id="text_16">
    <!-- 30.65 -->
    <g style="fill: #0000ff" transform="translate(24.47875 344.480693) scale(0.1 -0.1)">
     <use xlink:href="#SimHei-33"/>
     <use xlink:href="#SimHei-30" x="50"/>
     <use xlink:href="#SimHei-2e" x="100"/>
     <use xlink:href="#SimHei-36" x="150"/>
     <use xlink:href="#SimHei-35" x="200"/>
    </g>
   </g>
   <g id="text_17">
    <!-- 35.91 -->
    <g style="fill: #008000" transform="translate(24.47875 321.210951) scale(0.1 -0.1)">
     <use xlink:href="#SimHei-33"/>
     <use xlink:href="#SimHei-35" x="50"/>
     <use xlink:href="#SimHei-2e" x="100"/>
     <use xlink:href="#SimHei-39" x="150"/>
     <use xlink:href="#SimHei-31" x="200"/>
    </g>
   </g>
   <g id="text_18">
    <!-- 40.93 -->
    <g style="fill: #ff0000" transform="translate(24.47875 299.056391) scale(0.1 -0.1)">
     <use xlink:href="#SimHei-34"/>
     <use xlink:href="#SimHei-30" x="50"/>
     <use xlink:href="#SimHei-2e" x="100"/>
     <use xlink:href="#SimHei-39" x="150"/>
     <use xlink:href="#SimHei-33" x="200"/>
    </g>
   </g>
   <g id="text_19">
    <!-- 三种方法运行时间对比 -->
    <g transform="translate(237.339375 22.5225) scale(0.14 -0.14)">
     <defs>
      <path id="SimHei-4e09" d="M 6000 -200 
Q 5550 -175 5200 -175 
L 1300 -175 
Q 900 -175 375 -200 
L 375 350 
Q 850 325 1300 325 
L 5200 325 
Q 5575 325 6000 375 
L 6000 -200 
z
M 900 4600 
Q 1400 4575 1825 4575 
L 4600 4575 
Q 5075 4575 5475 4600 
L 5475 4075 
Q 5100 4100 4600 4100 
L 1800 4100 
Q 1375 4100 900 4075 
L 900 4600 
z
M 2075 2100 
Q 1700 2100 1275 2075 
L 1275 2625 
Q 1675 2600 2075 2600 
L 4225 2600 
Q 4600 2600 5050 2625 
L 5050 2075 
Q 4550 2100 4225 2100 
L 2075 2100 
z
" transform="scale(0.015625)"/>
      <path id="SimHei-79cd" d="M 4225 4000 
Q 4225 4975 4200 5275 
L 4725 5275 
Q 4700 5000 4700 4000 
L 6000 4000 
Q 5975 3725 5975 3250 
L 5975 1550 
Q 5975 1275 6000 925 
L 5500 925 
L 5500 1425 
L 4700 1425 
L 4700 375 
Q 4700 -275 4725 -700 
L 4200 -700 
Q 4225 -275 4225 375 
L 4225 1425 
L 3425 1425 
L 3425 825 
L 2925 825 
Q 2950 1125 2950 1500 
L 2950 3200 
Q 2950 3725 2925 4000 
L 4225 4000 
z
M 350 3250 
Q 725 3225 1225 3225 
L 1425 3225 
L 1425 4325 
Q 1175 4250 575 4125 
Q 475 4350 350 4575 
Q 900 4600 1412 4737 
Q 1925 4875 2350 5100 
Q 2500 4900 2725 4625 
Q 2475 4600 2300 4550 
Q 2125 4500 1900 4450 
L 1900 3225 
Q 2225 3225 2700 3250 
L 2700 2800 
Q 2225 2825 1900 2825 
L 1900 225 
Q 1900 -125 1925 -650 
L 1400 -650 
Q 1425 -125 1425 225 
L 1425 1875 
Q 1225 1375 1062 1075 
Q 900 775 625 350 
Q 425 625 250 850 
Q 600 1225 887 1725 
Q 1175 2225 1300 2825 
L 925 2825 
Q 575 2825 350 2800 
L 350 3250 
z
M 4225 1825 
L 4225 3600 
L 3425 3600 
L 3425 1825 
L 4225 1825 
z
M 5500 1825 
L 5500 3600 
L 4700 3600 
L 4700 1825 
L 5500 1825 
z
M 2375 2475 
Q 2450 2300 2575 2125 
Q 2700 1950 2850 1625 
Q 2625 1525 2425 1375 
Q 2300 1650 2212 1837 
Q 2125 2025 1975 2225 
Q 2125 2325 2375 2475 
z
" transform="scale(0.015625)"/>
      <path id="SimHei-65b9" d="M 425 3975 
Q 825 3950 1300 3950 
L 5025 3950 
Q 5625 3950 6000 3975 
L 6000 3475 
Q 5675 3500 5100 3500 
L 2525 3500 
Q 2525 3225 2500 2500 
L 5300 2500 
Q 5250 2175 5200 1550 
L 5050 175 
Q 5000 -275 4625 -412 
Q 4250 -550 3525 -625 
Q 3500 -300 3325 -50 
Q 3900 -75 4200 0 
Q 4500 75 4575 425 
L 4725 2050 
L 2475 2050 
Q 2375 1350 2162 875 
Q 1950 400 1575 0 
Q 1200 -400 825 -700 
Q 725 -550 375 -350 
Q 700 -175 1062 200 
Q 1425 575 1662 1050 
Q 1900 1525 1962 2100 
Q 2025 2675 2025 3500 
L 1325 3500 
Q 775 3500 425 3475 
L 425 3975 
z
M 3075 4075 
Q 2850 4575 2575 5000 
Q 2800 5125 3025 5275 
Q 3300 4850 3575 4350 
Q 3325 4250 3075 4075 
z
" transform="scale(0.015625)"/>
      <path id="SimHei-6cd5" d="M 6075 -300 
Q 5850 -425 5625 -625 
Q 5450 -300 5325 -125 
Q 4525 -175 3587 -262 
Q 2650 -350 2325 -450 
Q 2250 -150 2125 75 
Q 2450 175 2825 725 
Q 3200 1275 3500 2100 
L 2800 2100 
Q 2350 2100 1950 2075 
L 1950 2525 
Q 2350 2500 2825 2500 
L 3725 2500 
L 3725 3600 
L 3150 3600 
Q 2675 3600 2325 3575 
L 2325 4025 
Q 2725 4000 3125 4000 
L 3725 4000 
Q 3725 4700 3700 5150 
L 4250 5150 
Q 4225 4775 4225 4000 
L 4975 4000 
Q 5350 4000 5750 4025 
L 5750 3575 
Q 5350 3600 5025 3600 
L 4225 3600 
L 4225 2500 
L 5125 2500 
Q 5575 2500 6025 2525 
L 6025 2075 
Q 5575 2100 5125 2100 
L 3850 2100 
L 4100 1950 
Q 3950 1775 3625 1200 
Q 3300 625 2900 100 
Q 4000 150 5075 225 
Q 4775 675 4450 1025 
Q 4650 1175 4825 1350 
Q 5275 800 6075 -300 
z
M 300 -250 
Q 650 100 1012 625 
Q 1375 1150 1725 1725 
Q 1850 1500 2075 1375 
Q 1850 1075 1500 487 
Q 1150 -100 850 -625 
Q 650 -425 300 -250 
z
M 675 3425 
Q 1200 3100 1800 2650 
Q 1575 2500 1400 2250 
Q 925 2675 350 3050 
Q 525 3200 675 3425 
z
M 1050 4900 
Q 1550 4575 2100 4125 
Q 1900 3975 1725 3725 
Q 1250 4175 725 4525 
Q 900 4700 1050 4900 
z
" transform="scale(0.015625)"/>
      <path id="SimHei-5bf9" d="M 525 4250 
Q 900 4225 1400 4225 
L 2825 4225 
Q 2575 2625 2200 1750 
Q 2825 875 3125 400 
Q 2950 275 2725 75 
Q 2200 975 1950 1300 
Q 1650 775 1350 425 
Q 1050 75 600 -350 
Q 425 -125 200 -25 
Q 625 275 975 675 
Q 1325 1075 1650 1700 
Q 1050 2425 550 2900 
Q 700 3025 900 3225 
Q 1625 2425 1875 2150 
Q 2200 3050 2300 3825 
L 1400 3825 
Q 900 3825 525 3800 
L 525 4250 
z
M 2925 3700 
Q 3525 3675 3750 3675 
L 4825 3675 
L 4825 4425 
Q 4825 4750 4775 5125 
L 5350 5125 
Q 5325 4825 5325 4375 
L 5325 3675 
Q 5575 3675 6150 3700 
L 6150 3250 
Q 5575 3275 5325 3275 
L 5325 125 
Q 5350 -350 5012 -475 
Q 4675 -600 4250 -650 
Q 4175 -350 4025 -100 
Q 4575 -100 4712 -37 
Q 4850 25 4825 325 
L 4825 3275 
L 3775 3275 
Q 3550 3275 2925 3225 
L 2925 3700 
z
M 3450 2725 
Q 3875 1975 4175 1325 
Q 3850 1200 3700 1075 
Q 3475 1750 3050 2475 
Q 3225 2550 3450 2725 
z
" transform="scale(0.015625)"/>
      <path id="SimHei-6bd4" d="M 3775 5100 
Q 3750 4575 3750 4100 
L 3750 3050 
Q 4925 3600 5475 4175 
Q 5675 3900 5900 3675 
Q 5600 3500 5037 3187 
Q 4475 2875 3750 2550 
L 3750 450 
Q 3750 100 4050 100 
L 5000 100 
Q 5175 100 5262 250 
Q 5350 400 5450 900 
Q 5650 775 6025 675 
Q 5850 0 5650 -175 
Q 5450 -350 5225 -350 
L 3900 -350 
Q 3250 -350 3250 275 
L 3250 4000 
Q 3250 4550 3225 5100 
L 3775 5100 
z
M 1275 4975 
Q 1250 4575 1250 4000 
L 1250 3150 
L 1850 3150 
Q 2325 3150 2875 3175 
L 2875 2650 
Q 2325 2675 1850 2675 
L 1250 2675 
L 1250 475 
Q 1650 650 1962 812 
Q 2275 975 2850 1275 
Q 2900 950 2950 750 
Q 2375 475 1762 175 
Q 1150 -125 925 -325 
Q 750 -100 575 200 
Q 700 300 750 600 
L 750 3950 
Q 750 4550 725 4975 
L 1275 4975 
z
" transform="scale(0.015625)"/>
     </defs>
     <use xlink:href="#SimHei-4e09"/>
     <use xlink:href="#SimHei-79cd" x="100"/>
     <use xlink:href="#SimHei-65b9" x="200"/>
     <use xlink:href="#SimHei-6cd5" x="300"/>
     <use xlink:href="#SimHei-8fd0" x="400"/>
     <use xlink:href="#SimHei-884c" x="500"/>
     <use xlink:href="#SimHei-65f6" x="600"/>
     <use xlink:href="#SimHei-95f4" x="700"/>
     <use xlink:href="#SimHei-5bf9" x="800"/>
     <use xlink:href="#SimHei-6bd4" x="900"/>
    </g>
   </g>
  </g>
 </g>
 <defs>
  <clipPath id="pc0c8bcbf1d">
   <rect x="49.47875" y="42.5225" width="515.72125" height="434.57625"/>
  </clipPath>
 </defs>
</svg>
